<?xml version="1.0" encoding="UTF-8" standalone="no"?>
<svg
   width="2970mm"
   height="2100mm"
   viewBox="0 0 2970 2100"
   version="1.1"
   id="svg11156"
   inkscape:version="1.2.1 (9c6d41e410, 2022-07-14)"
   sodipodi:docname="caribou_cnc.svg"
   xmlns:inkscape="http://www.inkscape.org/namespaces/inkscape"
   xmlns:sodipodi="http://sodipodi.sourceforge.net/DTD/sodipodi-0.dtd"
   xmlns="http://www.w3.org/2000/svg"
   xmlns:svg="http://www.w3.org/2000/svg"
   xmlns:rdf="http://www.w3.org/1999/02/22-rdf-syntax-ns#"
   xmlns:cc="http://creativecommons.org/ns#"
   xmlns:dc="http://purl.org/dc/elements/1.1/">
  <metadata
     id="metadata67">
    <rdf:RDF>
      <cc:Work
         rdf:about="">
        <dc:format>image/svg+xml</dc:format>
        <dc:type
           rdf:resource="http://purl.org/dc/dcmitype/StillImage" />
      </cc:Work>
    </rdf:RDF>
  </metadata>
  <sodipodi:namedview
     id="namedview11158"
     pagecolor="#ffffff"
     bordercolor="#666666"
     borderopacity="1.0"
     inkscape:showpageshadow="2"
     inkscape:pageopacity="0.0"
     inkscape:pagecheckerboard="0"
     inkscape:deskcolor="#d1d1d1"
     inkscape:document-units="mm"
     showgrid="false"
     inkscape:zoom="0.19844875"
     inkscape:cx="4525.0978"
     inkscape:cy="4580.5277"
     inkscape:window-width="2516"
     inkscape:window-height="1353"
     inkscape:window-x="20"
     inkscape:window-y="65"
     inkscape:window-maximized="1"
     inkscape:current-layer="svg11156"
     showguides="true"
     inkscape:lockguides="false"
     inkscape:document-rotation="0">
    <sodipodi:guide
       position="1191.4993,1214.6852"
       orientation="1,0"
       id="guide22534"
       inkscape:locked="false" />
    <sodipodi:guide
       position="1313.527,1238.7381"
       orientation="1,0"
       id="guide22536"
       inkscape:locked="false" />
    <sodipodi:guide
       position="1590.5764,125.44529"
       orientation="0,-1"
       id="guide22809"
       inkscape:locked="false" />
    <sodipodi:guide
       position="1952.4467,1346.7383"
       orientation="1,0"
       id="guide22887"
       inkscape:locked="false" />
  </sodipodi:namedview>
  <defs
     id="defs11153">
    <clipPath
       clipPathUnits="userSpaceOnUse"
       id="clipPath2666">
      <path
         d="M 2292.88,3696.34 H 3407.93 V 708.841 H 2292.88 Z"
         id="path2664" />
    </clipPath>
    <clipPath
       clipPathUnits="userSpaceOnUse"
       id="clipPath2650">
      <path
         d="M 4346.55,3408.99 H 5743.3 V 703.782 H 4346.55 Z"
         id="path2648" />
    </clipPath>
    <clipPath
       clipPathUnits="userSpaceOnUse"
       id="clipPath2634-3">
      <path
         d="M 559.298,3605.07 H 1634.7 V 2606.26 H 559.298 Z"
         id="path2632-6" />
    </clipPath>
    <clipPath
       clipPathUnits="userSpaceOnUse"
       id="clipPath2634">
      <path
         d="M 559.298,3605.07 H 1634.7 V 2606.26 H 559.298 Z"
         id="path2632" />
    </clipPath>
    <clipPath
       clipPathUnits="userSpaceOnUse"
       id="clipPath2618">
      <path
         d="M 4346.55,3408.99 H 5627.23 V 682.413 H 4346.55 Z"
         id="path2616" />
    </clipPath>
    <clipPath
       clipPathUnits="userSpaceOnUse"
       id="clipPath2602">
      <path
         d="M 1867.76,3696.34 H 3407.93 V 708.841 H 1867.76 Z"
         id="path2600" />
    </clipPath>
  </defs>
  <g
     inkscape:groupmode="layer"
     id="layer9"
     inkscape:label="Layer 9"
     style="display:inline">
    <path
       d="m 1191.8854,1252.1115 38.0916,14.6402 52.8001,-19.1668 42.0072,-102.6419 17.7554,-80.3804 -40.2761,-41.1162 -67.5725,26.284 -36.722,103.5778 z"
       style="display:inline;fill:#280b0b;fill-opacity:1;fill-rule:nonzero;stroke:#000000;stroke-width:0.79756;stroke-dasharray:none;stroke-opacity:1"
       id="path4928"
       inkscape:label="9 Front Leg" />
    <path
       d="m 1983.6989,1167.8913 39.1897,-75.1523 38.8044,11.0439 10.1378,34.0918 38.3231,33.2298 24.5036,41.7039 -2.6426,49.4668 -8.5631,28.5983 -12.6266,-0.6744 -32.4886,28.7372 -46.7722,-6.751 -31.368,-44.9058 z"
       style="display:inline;fill:#280b0b;fill-opacity:1;fill-rule:nonzero;stroke:#000000;stroke-width:0.79756;stroke-dasharray:none;stroke-opacity:1"
       id="path2730"
       inkscape:label="9 Hind Leg" />
  </g>
  <g
     inkscape:groupmode="layer"
     id="layer8"
     inkscape:label="Layer 8"
     style="display:inline">
    <path
       d="m 579.25792,1216.7511 20.33621,-44.919 11.81864,-16.616 12.35904,-0.4123 0.88454,26.515 5.05006,20.4773 -13.63136,27.7367 -18.68112,7.2591 -10.90491,0.3637 z"
       style="display:inline;fill:#501616;fill-opacity:1;fill-rule:nonzero;stroke:#000000;stroke-width:0.79756;stroke-dasharray:none;stroke-opacity:1"
       id="path2710"
       inkscape:label="8 Face 1" />
    <path
       d="m 721.12532,1183.111 50.95215,-3e-4 33.9682,-35.0299 12.02934,-33.9694 -19.81559,-10.6137 -44.58267,28.3051 -32.55332,36.0923 z"
       style="display:inline;fill:#501616;fill-opacity:1;fill-rule:nonzero;stroke:#000000;stroke-width:0.79756;stroke-dasharray:none;stroke-opacity:1"
       id="path20522"
       inkscape:label="8 Face 2" />
    <path
       d="m 1226.2492,982.2206 38.6924,-16.16491 83.2803,3.67377 36.0039,46.29084 -2.9391,113.8899 -37.4734,96.2554 -30.8608,66.8646 -66.1294,26.4519 -66.2185,11.2336 -27.8326,18.8923 -16.9001,-37.4735 36.0038,-179.285 z"
       style="display:inline;fill:#501616;fill-opacity:1;fill-rule:nonzero;stroke:#000000;stroke-width:0.79756;stroke-dasharray:none;stroke-opacity:1"
       id="path4924"
       inkscape:label="8 Front Leg" />
    <path
       d="m 2005.2933,1050.4083 67.3423,3.5981 48.4612,14.6369 38.8732,36.0939 24.8656,48.1014 2.8455,91.572 -20.4439,53.4764 -29.1543,18.9939 -21.6804,37.1105 -18.4271,2.5588 -39.9028,22.6717 -62.7017,-24.6106 -23.4031,-35.9757 -22.6121,-142.9448 23.8107,-90.1475 z"
       style="display:inline;fill:#501616;fill-opacity:1;fill-rule:nonzero;stroke:#000000;stroke-width:0.79756;stroke-dasharray:none;stroke-opacity:1"
       id="path2698"
       inkscape:label="8 Hind Leg" />
    <path
       d="m 2052.2532,1417.3226 20.2574,42.1858 18.6755,5.9587 14.8227,-14.0904 7.3268,-44.9639 -23.7211,-16.8587 z"
       style="display:inline;fill:#501616;fill-opacity:1;fill-rule:nonzero;stroke:#000000;stroke-width:0.79756;stroke-dasharray:none;stroke-opacity:1"
       id="path2702"
       inkscape:label="8 Hind Leg Small" />
  </g>
  <g
     inkscape:groupmode="layer"
     id="layer7"
     inkscape:label="Layer 7"
     style="display:inline">
    <path
       d="m 563.53782,1209.8855 -7.79944,-15.5318 26.22308,-12.562 z m 236.75318,-208.9654 -21.20662,5.0552 -58.63134,26.5399 -128.48911,101.1045 -51.14589,58.1354 4.98977,30.3313 38.67161,30.3314 h 24.94919 l 37.42409,-32.8591 8.73202,-82.1476 77.34323,-83.4111 60.31971,-5.9947 20.94129,-39.3556 z"
       style="display:inline;fill:#782121;fill-opacity:1;fill-rule:nonzero;stroke:#000000;stroke-width:0.79756;stroke-dasharray:none;stroke-opacity:1"
       id="path2694"
       inkscape:label="7 Face 1" />
    <path
       d="m 822.94924,1052.3612 20.63168,19.4179 v 47.3312 l -54.61308,74.0309 -35.195,16.9906 -44.90389,-10.9225 -12.1361,-20.6316 37.62223,-63.7607 z"
       style="display:inline;fill:#782121;fill-opacity:1;fill-rule:nonzero;stroke:#000000;stroke-width:0.79756;stroke-dasharray:none;stroke-opacity:1"
       id="path2686-8"
       inkscape:label="7 Face 2" />
    <path
       d="m 857.99949,1007.7275 -11.81834,-19.01693 9.59741,-27.78819 34.04359,-20.96565 8.8196,30.22721 z m 34.67756,-79.02422 -14.4914,5.22876 -37.53058,23.81803 -9.49944,36.66607 13.2464,6.52716 13.53937,18.0771 41.66875,-35.02175 9.8367,-20.11025 z"
       style="display:inline;fill:#782121;fill-opacity:1;fill-rule:nonzero;stroke:#000000;stroke-width:0.79756;stroke-dasharray:none;stroke-opacity:1"
       id="path20524"
       inkscape:label="7 Face 3" />
    <path
       d="m 1118.8038,1374.7123 16.0177,20.7059 35.9699,9.6471 38.4781,-5.1531 41.6124,-8.171 93.5337,-54.0123 17.1255,-51.3778 54.0127,-97.4859 19.761,-144.9118 -7.9043,-77.72539 -69.8211,-48.74294 -117.2469,-6.58681 -76.503,53.26476 -22.3003,133.80308 -36.4534,152.1541 z"
       style="display:inline;fill:#782121;fill-opacity:1;fill-rule:nonzero;stroke:#000000;stroke-width:0.79756;stroke-dasharray:none;stroke-opacity:1"
       id="path4920"
       inkscape:label="7 Front Leg"
       sodipodi:nodetypes="cccccccccccccccc" />
    <path
       d="m 1944.5233,1067.7184 41.5048,-34.1462 119.4359,1.8358 111.4687,59.1179 12.8881,97.8178 -17.5987,103.58 -16.2862,11.283 -6.7548,36.0997 -36.3386,47.8879 -13.898,79.4706 36.6661,104.0486 30.8995,53.9112 7.5787,16.2043 -20.4508,-1.0928 -60.0302,-50.6061 -28.2349,-58.6302 -50.045,-34.2731 -47.344,-83.7881 -49.2772,-27.1098 -29.3999,-36.8162 -13.8938,-191.5524 z"
       style="display:inline;fill:#782121;fill-opacity:1;fill-rule:nonzero;stroke:#000000;stroke-width:0.79756;stroke-dasharray:none;stroke-opacity:1"
       id="path2678"
       inkscape:label="7 Hind Leg" />
  </g>
  <g
     inkscape:groupmode="layer"
     id="layer6"
     inkscape:label="Layer 6"
     style="display:inline">
    <path
       id="path2604"
       style="display:inline;fill:#a02c2c;fill-opacity:1;fill-rule:nonzero;stroke:#000000;stroke-width:0.79756;stroke-dasharray:none;stroke-opacity:1"
       inkscape:label="6 Front Leg"
       d="m 1222.4163,878.5133 -46.655,17.74879 -52.5446,53.40811 -8.477,56.919 -17.9193,109.7571 -26.88,181.437 v 55.9987 l -28.4345,72.7702 -35.8396,47.039 -35.83868,44.7988 -20.16001,26.8795 -16.8,16.7995 -14.5588,24.6398 -4.48035,31.3594 v 27.9988 26.88 34.7193 47.039 64.9588 47.039 c 0.6045,34.7614 0.67356,72.4042 1.27796,107.1656 h 43.36014 c -1.29,-34.7614 0.33045,-72.4042 -0.95911,-107.1656 l 1.12034,-47.039 1.11983,-64.9588 1.11983,-44.7988 v -59.3592 l 13.43949,-25.7307 15.67966,-32.5076 31.3598,-22.3997 43.4351,-29.1201 32.7825,-16.4683 35.7797,-44.0097 20.1601,-26.88 22.3991,-26.879 39.3816,4.4798 38.0793,8.9597 136.8904,-81.7299 c 2.2294,-15.1433 4.4596,-30.2867 6.689,-45.4303 l 26.9105,-24.0084 11.1998,-26.8795 c 9.4702,-29.5784 18.9412,-59.1576 28.4117,-88.7367 l 13.3697,-109.3762 0.8666,-82.85337 -30.117,-54.74653 -127.2243,-47.7175 z m -80.6105,96.12902 a 6.2873735,6.287374 0 0 1 6.2874,6.28747 6.2873735,6.287374 0 0 1 -6.2874,6.28695 6.2873735,6.287374 0 0 1 -6.2875,-6.28695 6.2873735,6.287374 0 0 1 6.2875,-6.28747 z m 308.9744,32.31738 a 6.2873735,6.287374 0 0 1 6.2875,6.2875 6.2873735,6.287374 0 0 1 -6.2875,6.2875 6.2873735,6.287374 0 0 1 -6.287,-6.2875 6.2873735,6.287374 0 0 1 6.287,-6.2875 z m -48.1196,257.6055 a 6.2873735,6.287374 0 0 1 6.287,6.2875 6.2873735,6.287374 0 0 1 -6.287,6.2874 6.2873735,6.287374 0 0 1 -6.2874,-6.2874 6.2873735,6.287374 0 0 1 6.2874,-6.2875 z m -308.5021,74.7143 a 6.2873735,6.287374 0 0 1 6.2875,6.2875 6.2873735,6.287374 0 0 1 -6.2875,6.2874 6.2873735,6.287374 0 0 1 -6.2874,-6.2874 6.2873735,6.287374 0 0 1 6.2874,-6.2875 z" />
    <path
       id="path2620"
       style="display:inline;fill:#a02c2c;fill-opacity:1;fill-rule:nonzero;stroke:#000000;stroke-width:0.79756;stroke-dasharray:none;stroke-opacity:1"
       inkscape:label="6 Hind Leg"
       d="m 2034.4469,987.67821 -82.1469,0.98392 -56.7356,66.21507 -4.4803,64.9583 -8.9597,78.3989 v 89.5976 l 8.9597,94.0785 61.1352,51.572 26.6408,11.7115 23.0213,56.6875 29.1197,32.2889 33.599,31.3594 29.1191,47.039 47.0395,38.0793 24.6394,29.1197 15.6801,35.8391 -4.4803,69.4387 -13.44,60.4784 -17.9193,62.7192 c 0,25.3764 0.031,40.2487 0,65.6255 h 36.0546 c 0.3903,-25.3768 1.6399,-40.2491 2.0299,-65.6255 l 17.9198,-49.2791 20.1595,-58.2389 13.4395,-67.199 10.5859,-38.0793 v -55.9986 l -30.7454,-55.9992 -22.3992,-47.039 -20.16,-58.2388 9.7385,-69.4211 36.9341,-50.7147 4.9703,-26.1152 27.729,-29.6561 8.9592,-38.0793 13.6674,-52.5111 -4.9904,-77.6169 12.2716,-26.2646 21.8389,-1.3963 47.039,-10.0795 -17.9203,-16.8 -42.5587,-31.3593 -45.0215,-17.618 -58.0166,1.9383 -22.3997,-17.9198 -53.759,-13.4395 z m -116.782,62.38429 a 6.2873735,6.287374 0 0 1 6.2874,6.2875 6.2873735,6.287374 0 0 1 -6.2874,6.2875 6.2873735,6.287374 0 0 1 -6.2875,-6.2875 6.2873735,6.287374 0 0 1 6.2875,-6.2875 z m 325.2034,20.3523 a 6.2873735,6.287374 0 0 1 6.2874,6.2874 6.2873735,6.287374 0 0 1 -6.2874,6.2875 6.2873735,6.287374 0 0 1 -6.2875,-6.2875 6.2873735,6.287374 0 0 1 6.2875,-6.2874 z m -10.0676,202.0776 a 6.2873735,6.287374 0 0 1 6.2874,6.2874 6.2873735,6.287374 0 0 1 -6.2874,6.2875 6.2873735,6.287374 0 0 1 -6.2875,-6.2875 6.2873735,6.287374 0 0 1 6.2875,-6.2874 z m -315.1358,102.2826 a 6.2873735,6.287374 0 0 1 6.2874,6.2875 6.2873735,6.287374 0 0 1 -6.2874,6.2869 6.2873735,6.287374 0 0 1 -6.2875,-6.2869 6.2873735,6.287374 0 0 1 6.2875,-6.2875 z" />
    <path
       id="path22692"
       style="display:inline;fill:#a02c2c;fill-opacity:1;fill-rule:nonzero;stroke:#000000;stroke-width:0.799953;stroke-dasharray:none;stroke-opacity:1"
       inkscape:label="6 Head"
       d="m 890.79989,907.62522 -26.96011,11.23342 -21.3434,12.8633 -16.85014,25.32972 -6.74015,23.59029 -57.25594,-5.11907 -48.76188,30.74232 -55.97643,39.6477 -71.13209,60.6387 -60.63816,62.9718 -9.32863,29.1507 9.32863,23.3237 26.82162,32.6527 27.98589,22.1548 h 40.81249 l 29.15481,-23.3232 30.31908,-24.4884 h 59.47027 l 46.55737,-4.0897 18.03972,-9.4846 39.67665,-15.6032 26.30951,-29.5171 17.68884,-43.6428 5.41931,-29.2137 -2.55799,-30.7056 -13.52889,-31.9015 6.74946,-14.8766 11.23343,-19.0965 19.09702,-23.59027 V 966.03871 942.44842 L 903.15624,923.35191 Z M 874.805,1057.7153 a 6.2873735,6.287374 0 0 1 6.28747,6.2869 6.2873735,6.287374 0 0 1 -6.28747,6.2875 6.2873735,6.287374 0 0 1 -6.28747,-6.2875 6.2873735,6.287374 0 0 1 6.28747,-6.2869 z m -44.11669,126.5003 a 6.2873735,6.287374 0 0 1 6.28748,6.2874 6.2873735,6.287374 0 0 1 -6.28748,6.2875 6.2873735,6.287374 0 0 1 -6.28747,-6.2875 6.2873735,6.287374 0 0 1 6.28747,-6.2874 z" />
  </g>
  <g
     inkscape:groupmode="layer"
     id="layer5"
     inkscape:label="Layer 5"
     style="display:inline">
    <path
       id="path3424"
       style="display:inline;fill:#c83737;fill-opacity:1;stroke:#000000;stroke-width:0.79756;stroke-linecap:butt;stroke-linejoin:miter;stroke-dasharray:none;stroke-opacity:1"
       inkscape:label="5 Body 4"
       d="m 2034.4469,987.67821 -82.1469,0.98392 -0.081,444.82037 26.6408,11.7115 23.9742,16.4558 215.9615,-103.6143 4.9703,-26.1152 27.729,-29.6561 22.6266,-90.5904 -4.9904,-77.6169 12.2716,-26.2646 21.8389,-1.3963 47.039,-10.0795 -17.9203,-16.8 -42.5587,-31.3593 -45.0215,-17.618 -58.0166,1.9383 -22.3997,-17.9198 -53.759,-13.4395 z m 208.4214,82.73659 a 6.2873735,6.287374 0 0 1 6.2874,6.2874 6.2873735,6.287374 0 0 1 -6.2874,6.2875 6.2873735,6.287374 0 0 1 -6.2875,-6.2875 6.2873735,6.287374 0 0 1 6.2875,-6.2874 z m -10.0676,202.0776 a 6.2873735,6.287374 0 0 1 6.2874,6.2874 6.2873735,6.287374 0 0 1 -6.2874,6.2875 6.2873735,6.287374 0 0 1 -6.2875,-6.2875 6.2873735,6.287374 0 0 1 6.2875,-6.2874 z" />
    <path
       id="Body_2"
       style="display:inline;fill:#c83737;fill-opacity:1;fill-rule:nonzero;stroke:#000000;stroke-width:0.79756;stroke-dasharray:none;stroke-opacity:1"
       inkscape:label="5 Body 3"
       d="m 1320.3602,878.5133 -7.042,-0.39878 0.2088,527.75038 121.0852,30.8117 h 48.4363 l 53.051,18.0351 72.6545,13.7211 82.3417,13.7207 h 101.7163 l 77.4986,-13.7207 75.0761,-16.0078 6.8316,-18.9425 0.082,-444.82037 -86.8325,-14.17898 -75.076,-16.0078 h -77.4986 l -92.029,-21.94698 h -35.1162 -35.1168 l -53.2799,-6.03064 -53.2805,-6.03064 z m 130.42,128.4464 c 3.4725,-10e-5 6.2876,2.815 6.2875,6.2875 10e-5,3.4725 -2.815,6.2876 -6.2875,6.2875 -3.4723,-2e-4 -6.2871,-2.8152 -6.287,-6.2875 -10e-5,-3.4723 2.8147,-6.2873 6.287,-6.2875 z m 466.8847,43.1028 c 3.4725,0 6.2875,2.815 6.2874,6.2875 10e-5,3.4725 -2.8149,6.2875 -6.2874,6.2875 -3.4725,10e-5 -6.2876,-2.815 -6.2875,-6.2875 -10e-5,-3.4725 2.815,-6.2876 6.2875,-6.2875 z m -515.0043,214.5027 c 3.4723,2e-4 6.2871,2.8152 6.287,6.2875 0,3.4723 -2.8147,6.2872 -6.287,6.2874 -3.4724,0 -6.2874,-2.815 -6.2874,-6.2874 -10e-5,-3.4725 2.8149,-6.2875 6.2874,-6.2875 z m 515.0043,110.2098 c 3.4725,0 6.2875,2.815 6.2874,6.2875 -3e-4,3.4722 -2.8152,6.2869 -6.2874,6.2869 -3.4723,10e-5 -6.2872,-2.8146 -6.2875,-6.2869 -10e-5,-3.4725 2.815,-6.2876 6.2875,-6.2875 z"
       sodipodi:nodetypes="ccccccccccccccccccccccssssssssssssssssssss" />
    <path
       style="display:inline;fill:#c83737;stroke:#000000;stroke-width:0.79756;stroke-linecap:butt;stroke-linejoin:miter;stroke-dasharray:none;stroke-opacity:1"
       d="m 1191.4993,890.23471 30.9169,-11.72125 90.902,-0.39894 0.2088,527.75038 -122.0131,-38.784 z"
       id="path3430"
       inkscape:label="5 Body 2"
       sodipodi:nodetypes="cccccc" />
    <path
       id="path2582"
       style="display:inline;fill:#c83737;fill-opacity:1;fill-rule:nonzero;stroke:#000000;stroke-width:0.79442;stroke-dasharray:none;stroke-opacity:1"
       inkscape:label="5 Body 1"
       d="m 1191.4994,890.2299 -15.7381,6.02754 -52.1606,53.23706 -32.043,0.55914 h -40.0978 l -52.30022,-0.55552 -25.48681,0.0346 -75.30445,0.21239 -112.10582,275.15889 23.16138,25.1887 28.95895,42.3251 31.18621,55.6906 20.04891,64.6018 33.4145,28.9594 31.86782,13.007 h 35.64227 42.32506 l 39.4172,-13.007 h 33.414 l 85.8144,-74.5934 z m -49.6936,84.41242 a 6.2873735,6.287374 0 0 1 6.2874,6.28747 6.2873735,6.287374 0 0 1 -6.2874,6.28695 6.2873735,6.287374 0 0 1 -6.2875,-6.28695 6.2873735,6.287374 0 0 1 6.2875,-6.28747 z M 874.805,1057.7153 a 6.2873735,6.287374 0 0 1 6.28747,6.2869 6.2873735,6.287374 0 0 1 -6.28747,6.2875 6.2873735,6.287374 0 0 1 -6.28747,-6.2875 6.2873735,6.287374 0 0 1 6.28747,-6.2869 z m -44.11669,126.5003 a 6.2873735,6.287374 0 0 1 6.28748,6.2874 6.2873735,6.287374 0 0 1 -6.28748,6.2875 6.2873735,6.287374 0 0 1 -6.28747,-6.2875 6.2873735,6.287374 0 0 1 6.28747,-6.2874 z m 263.47019,155.0639 a 6.2873735,6.287374 0 0 1 6.2875,6.2875 6.2873735,6.287374 0 0 1 -6.2875,6.2874 6.2873735,6.287374 0 0 1 -6.2874,-6.2874 6.2873735,6.287374 0 0 1 6.2874,-6.2875 z" />
    <path
       id="path437"
       style="display:inline;opacity:0.95;fill:#c83737;fill-opacity:1;stroke:#000000;stroke-width:0.794421;stroke-miterlimit:10;stroke-dasharray:none;stroke-dashoffset:0;stroke-opacity:1"
       class="st0"
       inkscape:label="5 Head &amp; Rrack"
       d="m 1027.4654,101.4972 -10.5508,13.17037 c 0,0 -8.2648,20.02879 -12.2582,19.63406 -3.9934,-0.39473 -9.40295,-15.86958 -9.40295,-15.86958 l -10.4697,-11.14245 c 0,0 19.38015,47.88976 19.96255,51.67201 0.5826,3.78222 8.1333,33.19768 8.1333,33.19768 0,0 0.4572,50.70459 0.4572,58.03309 0,7.3285 -6.8749,22.13214 -9.7739,27.34209 -2.8991,5.20992 -29.69935,14.05571 -29.69935,14.05571 l -23.1568,-14.58799 -18.7064,-29.67777 -7.8782,-22.61273 -20.4369,-12.78384 -14.4907,-7.62925 -20.6955,-18.98063 -12.50061,-7.85373 -0.8757,20.04511 44.65081,40.53329 16.1551,34.60265 -35.9043,6.99216 -53.41081,-2.28586 -69.55615,-40.24932 34.65393,39.27474 54.74368,27.69374 25.69845,13.97916 22.2084,40.24186 -9.0261,19.80579 -42.62365,-1.94099 -45.95623,-18.42676 -14.61179,7.00703 c 0,0 39.77925,23.49129 46.09448,24.20356 6.3151,0.71224 40.91909,12.32889 40.91909,12.32889 l 31.8938,21.55567 27.3168,30.15354 57.3499,37.99392 76.84715,59.13998 44.5617,52.80567 c 0,0 25.1506,66.29529 25.1506,70.8355 0,4.54022 -19.9307,67.11788 -19.9307,67.11788 l -83.5063,71.1217 -106.97685,49.93699 -79.64527,31.76295 -38.7254,5.42961 -32.30041,-19.68904 -54.36824,-50.4016 -26.09546,-44.20854 -5.45117,-33.43628 22.5659,-40.20026 -24.9395,23.20149 -28.52703,-46.94044 -31.76443,-47.26826 -11.72526,-47.76113 3.56597,-32.77171 -4.13465,-23.75977 -14.92178,58.99725 14.58651,69.45655 42.63036,70.75744 c 0,0 9.72621,29.40832 9.28401,33.86595 -0.4422,4.45765 -17.46635,9.15095 -17.46635,9.15095 0,0 -26.74969,-19.16998 -29.13288,-23.80362 -2.38334,-4.6336 -21.20405,-43.96248 -21.20405,-43.96248 l -13.83198,-22.03811 2.16396,-36.49007 -10.11064,-28.27354 c 0,0 -0.66607,49.86375 -0.66607,53.34239 0,3.47868 -10.71427,0.87719 -10.71427,0.87719 l -17.91609,-41.20976 2.34535,-43.78556 -11.73864,-17.83952 0.1509,62.0882 3.16083,32.52193 18.05585,31.8685 24.75292,33.6645 c 0,0 3.1861,12.22096 3.1861,16.05022 0,3.82927 2.13874,11.92957 -2.28959,13.39711 -4.42848,1.46755 -11.99139,-2.7988 -11.99139,-2.7988 0,0 -34.17782,-14.52953 -37.09815,-18.28184 -2.92034,-3.75228 -15.50832,-33.91405 -17.00769,-37.37245 -1.49951,-3.4584 -4.27198,-14.23171 -5.10402,-18.59554 -0.83204,-4.36386 -2.2e-4,-3.2731 -5.1947,-10.75441 -5.19449,-7.48137 -4.05066,0.0632 -4.05066,0.0632 l -6.71119,12.88864 -14.29734,-13.51234 -2.20262,14.70546 8.96065,19.94922 12.11404,33.04601 37.24534,33.20807 41.69593,26.01145 c 0,0 35.59096,7.83426 39.45986,8.66627 3.86889,0.83201 34.10098,10.95695 36.37484,11.67992 2.27387,0.72299 33.20949,28.82304 36.77702,31.55851 3.56752,2.7355 25.20117,24.05415 25.20117,24.05415 0,0 58.32531,41.96763 61.61319,43.23769 3.28802,1.27005 22.36816,8.51016 22.36816,8.51016 l -4.8862,9.88317 -23.17845,7.88201 -10.31211,2.22047 c 0,0 -22.50797,1.01788 -26.34076,1.31205 -3.83279,0.29362 -24.35983,0.28049 -25.81,-0.0119 -1.45031,-0.29239 -16.24402,-3.21807 -18.77394,-3.21807 -2.52992,0 -24.79442,-10.92838 -34.34172,-14.45345 -9.5473,-3.52505 -11.1505,-12.62786 -13.62979,-14.51887 -2.47943,-1.89104 -15.73208,-17.92187 -18.03429,-19.35452 -2.30234,-1.43265 -18.47322,-16.38546 -20.66955,-18.13241 -2.19618,-1.74693 -25.9942,-24.51422 -27.0715,-26.15047 -1.07745,-1.63618 -19.8853,-18.34799 -19.8853,-18.34799 0,0 -12.32451,-7.60903 -13.69743,-8.96734 -1.37307,-1.35827 -6.64082,-7.20026 -8.32878,-7.77422 -1.68796,-0.57394 -4.7424,-0.66978 -6.52832,-0.66978 -1.78592,0 -4.44307,-1.16358 -11.69033,2.57654 -7.24725,3.74015 -0.76419,9.05803 -0.76419,9.05803 l 8.20018,8.99559 8.58375,8.82015 5.53221,9.84972 7.19512,12.17872 21.94073,24.57897 c 0,0 21.83564,23.71334 23.43714,24.30168 1.6015,0.58831 3.58804,0.56573 6.79148,6.25848 3.20329,5.69272 -1.39598,2.52599 -4.2759,2.52599 -2.87991,0 -9.74078,-6.58762 -12.37571,-8.63431 -2.63508,-2.04667 -13.79176,-10.85982 -15.83761,-12.90574 -2.04586,-2.04591 -13.46084,-14.57529 -14.90914,-15.99892 -1.4483,-1.42363 -9.60781,-9.20928 -13.70413,-12.13189 -4.09618,-2.92264 -12.68836,-13.09689 -14.72775,-14.54788 -2.03925,-1.45103 -5.75155,-10.46019 -6.9015,-12.44707 -1.14981,-1.98693 -1.73608,-11.8511 -2.29926,-14.15313 -0.56304,-2.30203 -1.31354,-11.97503 -1.31354,-11.97503 0,0 -1.24813,-13.44614 -1.24813,-14.64078 0,-1.19465 -0.81209,-6.81323 -3.114,-9.78803 -2.30178,-2.97475 -0.54173,-1.75741 -4.59778,-2.80252 -4.05619,-1.04507 -3.86035,2.52599 -3.86035,2.52599 l 1.22137,24.53659 1.83168,16.63749 0.36276,19.50765 c 0,0 -0.30124,7.89689 -1.61015,7.53486 -1.30905,-0.36208 -1.19466,-0.34447 -4.012,-4.00011 -2.81733,-3.65566 -4.1e-4,-6.20026 -0.40737,-7.08734 -0.4071,-0.88705 1.39546,-8.79355 1.60347,-10.09355 0.20801,-1.3 1.23439,-5.28787 0.90022,-6.49933 -0.33431,-1.21152 -2.36882,-3.29613 -4.47437,-3.29613 -2.10556,0 -4.83693,5.42363 -6.2228,6.67031 -1.38572,1.24669 -3.8373,12.21366 -3.8373,12.21366 l 0.28471,15.98852 6.21833,10.61763 9.41486,9.26394 16.13421,14.28619 c 0,0 24.08841,36.7656 26.343,38.39609 2.25445,1.63052 2.49303,1.24722 6.22354,3.93915 3.73065,2.69192 1.64975,4.7554 1.44289,7.18992 -0.20686,2.43452 -2.69504,6.02074 -3.92799,7.04571 -1.23296,1.02492 -9.96568,1.36855 -11.28221,1.16116 -1.31668,-0.20741 -11.58741,-6.83898 -12.00329,-7.82105 -0.41602,-0.98213 -4.30786,-17.67748 -4.30786,-17.67748 0,0 -3.11892,-5.80681 -3.92651,-6.97509 -0.80772,-1.16827 -3.87819,-8.77768 -3.87819,-10.68602 0,-1.90829 -2.9958,-8.01805 -2.9958,-8.01805 l -4.87729,1.24664 0.33155,43.5789 -15.35814,1.31429 5.6556,9.9367 12.69463,4.94568 7.90356,12.56081 18.62082,8.51388 12.81207,2.67541 11.64721,6.57738 c 0,0 1.41997,12.863 0.81622,14.501 -0.60374,1.6381 -6.4406,7.1862 -6.4406,7.1862 l -10.70089,2.865 h -16.97795 l -12.44931,-3.088 -8.36818,-6.2391 -3.07906,-9.3435 -7.29251,-8.5852 -9.96718,-5.61699 7.61885,25.83009 2.65609,26.9934 -10.94249,-0.077 9.5152,8.3593 16.73487,31.3883 32.05138,7.0092 29.61384,-22.3235 41.79778,-31.5823 42.13006,-36.6759 21.07841,-13.58002 37.65717,-16.70588 43.27931,-2.46354 7.02491,1.3574 -48.76172,30.74234 -55.97617,39.6479 -71.13211,60.6386 -60.63862,62.9721 -9.32862,29.1507 9.32862,23.3234 26.82173,32.6528 27.98586,22.1548 h 40.81279 l 29.15445,-23.3234 30.3193,-24.4883 h 59.47004 l 46.55777,-4.0897 c 22.88573,-55.8273 55.6957,-138.6882 112.10526,-275.15852 l 75.3041,-0.21257 -1.7686,-11.73719 102.76055,-27.71956 c 0,0 60.8943,-33.22028 66.433,-36.52057 5.5388,-3.30025 13.9559,-16.55628 13.9559,-16.55628 l 15.3887,-25.9676 8.7707,-14.86025 1.8375,-16.39085 44.8245,-41.44212 -42.4615,1.55772 -1.2891,-49.55077 2.6707,-42.93841 2.5914,-47.94173 29.4308,-12.38914 45.7443,0.87719 41.4291,-12.07985 29.0556,-22.62389 39.1818,-42.05126 23.2216,-28.84595 c 0,0 26.0827,-6.44878 30.0264,-6.44878 3.9439,0 34.3175,-0.7624 44.9497,-0.67796 10.6321,0.0845 35.624,-14.37911 35.624,-14.37911 l 58.2866,-35.57945 41.438,-32.03203 13.8959,-32.009 -0.808,-32.99919 -12.8441,4.5383 2.1171,15.15224 -15.7736,26.64478 -24.669,18.06405 -30.3341,26.02332 -2.6739,-22.88627 -12.9734,18.02907 -14.1353,18.04322 -35.407,8.20239 -6.9297,-15.56925 -13.276,-15.10984 10.7931,-9.25578 c 0,0 19.6694,-13.79012 23.7627,-19.06014 4.0933,-5.26998 3.9184,-16.67319 3.9184,-16.67319 0,0 -31.7288,22.61863 -34.4391,24.24448 -2.7102,1.62577 -22.9808,1.45997 -22.9808,1.45997 l -8.8535,-15.97066 -7.6702,24.44589 c 0,0 -41.7517,52.27101 -44.4524,54.49909 -2.7008,2.22807 -24.8696,17.52358 -24.8696,17.52358 l -105.7325,76.84323 c 0,0 -38.3914,5.88308 -44.6152,5.88308 -6.2238,0 -36.8179,-7.79058 -36.8179,-7.79058 l -11.5676,-56.7017 15.4889,-13.08638 28.9151,-31.44702 39.0228,-51.06394 24.7038,-39.78399 20.9863,-16.87087 40.9369,-15.63767 69.0722,-3.58381 34.7781,0.40067 c 0,0 27.1252,4.65354 36.4254,4.65354 9.3,0 10.6068,-2.9053 16.6954,-4.02017 6.0887,-1.11488 5.8355,-15.48303 5.8355,-15.48303 l -18.365,6.40491 -29.1939,-3.02774 -29.9617,-14.20814 -40.0427,1.7685 -53.7579,8.7941 -49.4598,2.74826 -5.1791,-21.07839 c 0,0 -8.0968,-10.08513 -8.0968,-12.45898 0,-2.37389 0.5724,-65.28173 0.5724,-65.28173 l 7.0531,-44.75938 9.1986,-6.41013 -8.6083,-8.88781 -14.3933,1.76329 -14.2438,51.65493 -7.0145,116.85936 -6.9282,29.65398 -30.6598,54.63216 c 0,0 4.6947,-49.32911 6.4488,-58.01824 1.7542,-8.68909 4.6122,-62.96824 4.0239,-68.67969 -0.5884,-5.7114 0.638,-53.38026 -1.5998,-59.13479 -2.2377,-5.75453 -7.5326,12.93249 -7.5326,12.93249 l -12.7816,59.27528 -6.8762,81.5052 c 0,0 -27.5481,50.24165 -29.6927,52.95063 -2.1445,2.70902 -17.8924,10.80726 -21.8968,6.74613 -4.0046,-4.06116 -17.7519,-23.5375 -16.6933,-25.96536 1.0588,-2.42782 0.2691,-28.15534 0.2691,-28.15534 l 25.2473,-32.74647 18.2484,-63.64557 c 0,0 6.3488,-57.81085 6.9372,-61.60277 0.5883,-3.79185 -2.2689,-49.95928 -2.2689,-49.95928 l -4.0855,-12.05607 -7.5349,-5.31512 -5.2965,42.27278 -18.2075,99.63387 -31.6314,51.92848 -17.0515,-2.68953 -15.9388,-13.5116 3.6433,-103.54028 3.9942,-12.71174 2.9423,-23.97013 -12.6181,13.90186 -10.6191,-45.11992 c 0,0 -2.4531,-41.30109 -2.4531,-44.25092 0,-2.94983 -1.7291,-29.63168 -1.7291,-29.63168 z"
       sodipodi:nodetypes="ccsccscssccccccccccccccccccccccsccccccscccccccccccccccccccscsccccsccccccccsscssssccccccccssscsccccsssssssscssssccccccsssssssssscsssccccssssssscccccsssssscssccccccccccsccccccccccccccccccccccccccccccccccccccscccccccccccccccsscccccccccccccccccscscccsccsccccccccccssccccccccscccccccccssscccssscccscccccccccccccsc" />
  </g>
  <g
     inkscape:groupmode="layer"
     id="layer4"
     inkscape:label="Layer 4"
     style="display:inline">
    <path
       id="path2652"
       style="display:inline;fill:#d35f5f;fill-opacity:1;fill-rule:nonzero;stroke:#000000;stroke-width:0.79756;stroke-dasharray:none;stroke-opacity:1"
       inkscape:label="4 Hind Leg"
       d="M 2034.4469 987.67821 L 1952.3 988.66213 L 1895.9504 1055.0762 L 1891.4701 1120.035 L 1882.5104 1198.4333 L 1882.5104 1288.0315 L 1891.4701 1382.11 L 1952.2193 1433.4825 L 1978.8601 1445.194 L 2037.0674 1485.1481 L 2079.6266 1485.1481 L 2151.3049 1500.8273 L 2236.4232 1518.7471 L 2270.0227 1527.7068 L 2303.6222 1552.3461 L 2303.6222 1590.4254 L 2305.8618 1680.0241 L 2326.0218 1749.4622 L 2334.9815 1807.701 L 2343.9412 1852.5004 L 2351.1092 1974.2676 C 2365.4289 1973.8689 2378.5437 1973.8687 2391.5326 1973.8687 C 2390.8299 1949.9947 2391.6833 1927.8933 2390.9802 1904.0197 L 2390.9802 1875.5599 L 2390.9802 1827.861 L 2368.581 1787.5415 L 2364.1012 1760.662 L 2370.8212 1697.9434 L 2377.5407 1648.6647 L 2390.9802 1570.2659 L 2390.9802 1505.3071 L 2390.9802 1456.0284 L 2377.5407 1438.1086 L 2350.6612 1438.1086 L 2310.3422 1422.4289 L 2278.9829 1411.2291 L 2243.1432 1393.3093 L 2218.7958 1358.0355 L 2223.7661 1331.9203 L 2251.4951 1302.2642 L 2261.7524 1259.1981 L 2274.1217 1211.6738 L 2269.1313 1134.0569 L 2281.4029 1107.7923 L 2303.2418 1106.396 L 2350.2808 1096.3165 L 2332.3605 1079.5165 L 2289.8018 1048.1572 L 2244.7803 1030.5392 L 2186.7637 1032.4775 L 2164.364 1014.5577 L 2110.605 1001.1182 L 2034.4469 987.67821 z M 1917.6649 1050.0625 A 6.2873735 6.287374 0 0 1 1923.9523 1056.35 A 6.2873735 6.287374 0 0 1 1917.6649 1062.6375 A 6.2873735 6.287374 0 0 1 1911.3774 1056.35 A 6.2873735 6.287374 0 0 1 1917.6649 1050.0625 z M 2242.8683 1070.4148 A 6.2873735 6.287374 0 0 1 2249.1557 1076.7022 A 6.2873735 6.287374 0 0 1 2242.8683 1082.9897 A 6.2873735 6.287374 0 0 1 2236.5808 1076.7022 A 6.2873735 6.287374 0 0 1 2242.8683 1070.4148 z M 2232.8007 1272.4924 A 6.2873735 6.287374 0 0 1 2239.0881 1278.7798 A 6.2873735 6.287374 0 0 1 2232.8007 1285.0673 A 6.2873735 6.287374 0 0 1 2226.5132 1278.7798 A 6.2873735 6.287374 0 0 1 2232.8007 1272.4924 z M 1917.6649 1374.775 A 6.2873735 6.287374 0 0 1 1923.9523 1381.0625 A 6.2873735 6.287374 0 0 1 1917.6649 1387.3494 A 6.2873735 6.287374 0 0 1 1911.3774 1381.0625 A 6.2873735 6.287374 0 0 1 1917.6649 1374.775 z " />
    <path
       id="path2668"
       style="display:inline;fill:#d35f5f;fill-opacity:1;fill-rule:nonzero;stroke:#000000;stroke-width:0.79756;stroke-dasharray:none;stroke-opacity:1"
       inkscape:label="4 Front Leg"
       d="M 1222.4163 878.5133 L 1175.3774 896.43314 L 1123.2167 949.6702 L 1114.8984 1006.1913 L 1096.9785 1115.9489 L 1070.099 1297.3854 L 1070.099 1353.3841 L 1097.2855 1398.9311 L 1175.1241 1418.3429 L 1215.4431 1430.6341 L 1253.5225 1439.5938 L 1276.1753 1454.182 L 1320.3602 1521.381 L 1343.3738 1610.9792 L 1372.493 1691.6177 L 1406.0925 1765.5356 L 1412.8125 1812.5752 L 1412.8125 1858.0344 L 1419.5898 1973.8687 C 1435.211 1974.0894 1447.2642 1973.9786 1461.8033 1973.8687 L 1464.3318 1877.5335 L 1464.3318 1819.2946 L 1450.8918 1763.296 L 1435.2121 1722.977 L 1424.0123 1691.6177 L 1417.2923 1637.8587 L 1408.3326 1587.7894 L 1410.5728 1521.381 L 1399.373 1472.1019 L 1390.4133 1416.1032 L 1390.4133 1357.8639 L 1397.8098 1312.4336 L 1424.0123 1288.4257 L 1435.2121 1261.5463 L 1464.3318 1172.8095 L 1477.7015 1075.7447 L 1477.7015 980.97733 L 1447.5845 926.2308 L 1444.0705 924.46709 L 1320.3602 878.5133 L 1264.9755 878.5133 L 1222.4163 878.5133 z M 1141.8058 974.64232 A 6.2873735 6.287374 0 0 1 1148.0932 980.92979 A 6.2873735 6.287374 0 0 1 1141.8058 987.21674 A 6.2873735 6.287374 0 0 1 1135.5183 980.92979 A 6.2873735 6.287374 0 0 1 1141.8058 974.64232 z M 1450.7802 1006.9597 A 6.2873735 6.287374 0 0 1 1457.0677 1013.2472 A 6.2873735 6.287374 0 0 1 1450.7802 1019.5347 A 6.2873735 6.287374 0 0 1 1444.4932 1013.2472 A 6.2873735 6.287374 0 0 1 1450.7802 1006.9597 z M 1402.6606 1264.5652 A 6.2873735 6.287374 0 0 1 1408.9476 1270.8527 A 6.2873735 6.287374 0 0 1 1402.6606 1277.1401 A 6.2873735 6.287374 0 0 1 1396.3732 1270.8527 A 6.2873735 6.287374 0 0 1 1402.6606 1264.5652 z M 1094.1585 1339.2795 A 6.2873735 6.287374 0 0 1 1100.446 1345.567 A 6.2873735 6.287374 0 0 1 1094.1585 1351.8544 A 6.2873735 6.287374 0 0 1 1087.8711 1345.567 A 6.2873735 6.287374 0 0 1 1094.1585 1339.2795 z " />
    <path
       id="path2636-2"
       style="display:inline;fill:#d35f5f;fill-opacity:1;fill-rule:nonzero;stroke:#000000;stroke-width:0.799953;stroke-dasharray:none;stroke-opacity:1"
       inkscape:label="4 Head"
       d="M 890.79989 907.62522 L 863.83978 918.85864 L 842.49638 931.72194 L 825.64624 957.05166 L 818.90609 980.64195 L 761.65015 975.52288 L 712.88827 1006.2652 L 656.91184 1045.9129 L 585.77975 1106.5516 L 525.14159 1169.5234 L 515.81296 1198.6741 L 525.14159 1221.9978 L 551.96321 1254.6505 L 579.9491 1276.8053 L 620.76159 1276.8053 L 649.9164 1253.4821 L 680.23548 1228.9937 L 739.70575 1228.9937 L 786.26312 1224.904 L 804.30284 1215.4194 L 843.97949 1199.8162 L 870.289 1170.2991 L 887.97784 1126.6563 L 893.39715 1097.4426 L 890.83916 1066.737 L 877.31027 1034.8355 L 884.05973 1019.9589 L 895.29316 1000.8624 L 914.39018 977.27213 L 914.39018 966.03871 L 914.39018 942.44842 L 903.15624 923.35191 L 890.79989 907.62522 z M 874.805 1057.7153 A 6.2873735 6.287374 0 0 1 881.09247 1064.0022 A 6.2873735 6.287374 0 0 1 874.805 1070.2897 A 6.2873735 6.287374 0 0 1 868.51753 1064.0022 A 6.2873735 6.287374 0 0 1 874.805 1057.7153 z M 830.68831 1184.2156 A 6.2873735 6.287374 0 0 1 836.97579 1190.503 A 6.2873735 6.287374 0 0 1 830.68831 1196.7905 A 6.2873735 6.287374 0 0 1 824.40084 1190.503 A 6.2873735 6.287374 0 0 1 830.68831 1184.2156 z " />
  </g>
  <g
     inkscape:groupmode="layer"
     id="layer3"
     inkscape:label="Layer 3"
     style="display:inline">
    <path
       d="m 1260.7321,905.46386 47.5283,3.05867 61.8256,55.52525 38.5256,48.26522 v 180.0162 l -23.7249,73.0499 -25.0741,31.3071 5.1367,101.7482 -21.8312,36.5248 -51.3675,-37.8294 -109.1559,-33.9161 -51.3675,-59.3529 -23.1155,-76.3111 68.0617,-236.10793 39.8102,-58.70104 z"
       style="display:inline;fill:#de8787;fill-opacity:1;fill-rule:nonzero;stroke:#000000;stroke-width:0.79756;stroke-dasharray:none;stroke-opacity:1"
       id="path2682"
       inkscape:label="3 Front Leg" />
    <path
       d="m 2363.355,1523.6063 -39.0315,32.7517 -3.5042,48.6682 12.6193,33.7539 22.0027,-4.6053 15.9574,-50.3415 1.7377,-48.5725 z"
       style="display:inline;fill:#de8787;fill-opacity:1;fill-rule:nonzero;stroke:#000000;stroke-width:0.79756;stroke-dasharray:none;stroke-opacity:1"
       id="path2714"
       inkscape:label="3 Hind Leg Small" />
    <path
       d="m 1957.987,1071.1578 48.7428,-38.2038 140.3433,19.1017 74.3897,32.2757 19.7603,39.4504 v 79.1137 l -31.6169,98.8034 -22.3955,43.4735 23.713,52.6952 73.773,40.8388 69.8214,55.3296 -22.3957,18.4435 -61.9168,-34.9878 -123.1325,-21.6594 -92.9174,-31.7862 -96.1687,-56.478 -25.0302,-61.9169 v -155.4506 z"
       style="display:inline;fill:#de8787;fill-opacity:1;fill-rule:nonzero;stroke:#000000;stroke-width:0.79756;stroke-dasharray:none;stroke-opacity:1"
       id="path4908"
       inkscape:label="3 Hind Leg" />
    <path
       d="m 562.52643,1207.7827 -7.79945,-15.5319 26.22308,-12.562 z m 236.75317,-208.96541 -21.20693,5.05521 -58.63102,26.5399 -128.48912,101.1045 -51.1462,58.1353 4.98977,30.3314 38.67193,30.3314 h 24.94887 l 37.42409,-32.8592 8.73234,-82.1475 77.34291,-83.4112 60.32003,-5.9946 20.94129,-39.3556 z"
       style="display:inline;fill:#de8787;fill-opacity:1;fill-rule:nonzero;stroke:#000000;stroke-width:0.79756;stroke-dasharray:none;stroke-opacity:1"
       id="path2694-7"
       inkscape:label="3 Face 1" />
    <path
       d="m 831.79524,1053.3056 20.63169,19.4179 v 47.3312 l -54.61308,74.0308 -35.195,16.9907 -44.90389,-10.9226 -12.1361,-20.6315 37.62223,-63.7608 z"
       style="display:inline;fill:#de8787;fill-opacity:1;fill-rule:nonzero;stroke:#000000;stroke-width:0.79756;stroke-dasharray:none;stroke-opacity:1"
       id="path2686"
       inkscape:label="3 Face 2" />
    <path
       d="m 857.99949,1007.7275 -11.81834,-19.01693 9.59741,-27.78819 34.04359,-20.96565 8.8196,30.22721 z m 34.67756,-79.02422 -14.4914,5.22876 -37.53058,23.81803 -9.49944,36.66607 13.2464,6.52716 13.53937,18.0771 41.66875,-35.02175 9.8367,-20.11025 z"
       style="display:inline;fill:#de8787;fill-opacity:1;fill-rule:nonzero;stroke:#000000;stroke-width:0.79756;stroke-dasharray:none;stroke-opacity:1"
       id="path2690"
       inkscape:label="3 Face 3" />
  </g>
  <g
     inkscape:groupmode="layer"
     id="layer2"
     inkscape:label="Layer 2"
     style="display:inline">
    <path
       d="m 1301.8381,1361.3005 22.4648,-63.1335 47.1757,-50.9631 6.7394,-188.6399 -23.9623,-41.0747 -41.9337,-42.59596 -52.4176,-3.80317 -39.6878,46.39913 -60.6544,164.2993 -6.7394,76.8251 39.6877,44.8781 64.3986,43.3565 z"
       style="display:inline;fill:#e9afaf;fill-opacity:1;fill-rule:nonzero;stroke:#000000;stroke-width:0.79756;stroke-dasharray:none;stroke-opacity:1"
       id="path2706"
       inkscape:label="2 Front Leg" />
    <path
       d="m 2200.6082,1443.4955 -45.6679,-81.2688 8.2764,-67.6707 42.0663,-80.4451 v -66.5912 l -40.4671,-46.4016 -115.2954,-30.3464 -68.6319,27.6647 -14.5087,108.9111 24.6487,126.7762 70.9542,50.5477 49.716,13.6091 50.8406,36.9097 z"
       style="display:inline;fill:#e9afaf;fill-opacity:1;fill-rule:nonzero;stroke:#000000;stroke-width:0.79756;stroke-dasharray:none;stroke-opacity:1"
       id="path4912"
       inkscape:label="2 Hind Leg" />
    <path
       d="m 583.19893,1213.6545 20.33621,-44.919 11.81865,-16.616 12.35904,-0.4123 0.88454,26.5151 5.05006,20.4772 -13.63137,27.7367 -18.68112,7.2591 -10.9049,0.3637 z"
       style="display:inline;fill:#e9afaf;fill-opacity:1;fill-rule:nonzero;stroke:#000000;stroke-width:0.79756;stroke-dasharray:none;stroke-opacity:1"
       id="path2710-2"
       inkscape:label="2 Face 1" />
    <path
       d="m 723.60152,1190.1041 h 50.95247 l 33.9682,-35.0297 12.0306,-33.9682 -19.81497,-10.6152 -44.58329,28.307 -32.55301,36.0913 z"
       style="display:inline;fill:#e9afaf;fill-opacity:1;fill-rule:nonzero;stroke:#000000;stroke-width:0.79756;stroke-dasharray:none;stroke-opacity:1"
       id="path2714-2"
       inkscape:label="2 Face 2" />
  </g>
  <g
     inkscape:label="Layer 1"
     inkscape:groupmode="layer"
     id="layer1"
     style="display:inline">
    <path
       d="m 1261.3437,1288.5385 65.8964,-56.2873 17.2229,-89.7563 -41.5595,-72.2611 -41.5598,-31.9473 -18.7203,44.1785 -32.948,104.9081 5.9901,51.7236 z"
       style="display:inline;fill:#f4d7d7;fill-opacity:1;fill-rule:nonzero;stroke:#000000;stroke-width:0.79756;stroke-dasharray:none;stroke-opacity:1"
       id="path2726"
       inkscape:label="1 Front Leg" />
    <path
       d="m 2110.7125,1342.4444 18.9163,-41.2737 38.9743,-50.8404 -12.3989,-66.3134 -65.0297,-34.8616 -71.761,44.4931 v 102.5297 l 44.8075,52.7322 56.0804,22.048 z"
       style="fill:#f4d7d7;fill-opacity:1;fill-rule:nonzero;stroke:#000000;stroke-width:0.79756;stroke-dasharray:none;stroke-opacity:1"
       id="path4916"
       inkscape:label="1 Hind Leg" />
  </g>
  <g
     inkscape:groupmode="layer"
     id="g23246"
     inkscape:label="Drill Base"
     style="display:none"
     sodipodi:insensitive="true">
    <ellipse
       style="fill:#ff00ff;fill-opacity:1;stroke:#000000;stroke-width:0.125252;stroke-linecap:round;stroke-linejoin:bevel;stroke-dasharray:none;stroke-dashoffset:0;stroke-opacity:1"
       id="ellipse23226"
       cx="1402.6604"
       cy="1270.8525"
       rx="6.2873735"
       ry="6.287374"
       inkscape:label="6" />
    <ellipse
       style="fill:#ff00ff;fill-opacity:1;stroke:#000000;stroke-width:0.125252;stroke-linecap:round;stroke-linejoin:bevel;stroke-dasharray:none;stroke-dashoffset:0;stroke-opacity:1"
       id="ellipse23228"
       cx="1450.7804"
       cy="1013.2471"
       rx="6.2873735"
       ry="6.287374"
       inkscape:label="5" />
    <ellipse
       style="fill:#ff00ff;fill-opacity:1;stroke:#000000;stroke-width:0.125252;stroke-linecap:round;stroke-linejoin:bevel;stroke-dasharray:none;stroke-dashoffset:0;stroke-opacity:1"
       id="ellipse23230"
       cx="830.68817"
       cy="1190.5029"
       rx="6.2873735"
       ry="6.287374"
       inkscape:label="4" />
    <ellipse
       style="fill:#ff00ff;fill-opacity:1;stroke:#000000;stroke-width:0.125252;stroke-linecap:round;stroke-linejoin:bevel;stroke-dasharray:none;stroke-dashoffset:0;stroke-opacity:1"
       id="ellipse23232"
       cx="874.80511"
       cy="1064.0024"
       rx="6.2873735"
       ry="6.287374"
       inkscape:label="3" />
    <ellipse
       style="fill:#ff00ff;fill-opacity:1;stroke:#000000;stroke-width:0.125252;stroke-linecap:round;stroke-linejoin:bevel;stroke-dasharray:none;stroke-dashoffset:0;stroke-opacity:1"
       id="ellipse23234"
       cx="1094.1587"
       cy="1345.567"
       rx="6.2873735"
       ry="6.287374"
       inkscape:label="2" />
    <ellipse
       style="fill:#ff00ff;fill-opacity:1;stroke:#000000;stroke-width:0.125252;stroke-linecap:round;stroke-linejoin:bevel;stroke-dasharray:none;stroke-dashoffset:0;stroke-opacity:1"
       id="ellipse23236"
       cx="1141.8057"
       cy="980.92957"
       rx="6.2873735"
       ry="6.287374"
       inkscape:label="1" />
    <ellipse
       style="fill:#ff00ff;fill-opacity:1;stroke:#000000;stroke-width:0.125252;stroke-linecap:round;stroke-linejoin:bevel;stroke-dasharray:none;stroke-dashoffset:0;stroke-opacity:1"
       id="ellipse23238"
       cx="2232.8005"
       cy="1278.7798"
       rx="6.2873735"
       ry="6.287374"
       inkscape:label="10" />
    <ellipse
       style="fill:#ff00ff;fill-opacity:1;stroke:#000000;stroke-width:0.125252;stroke-linecap:round;stroke-linejoin:bevel;stroke-dasharray:none;stroke-dashoffset:0;stroke-opacity:1"
       id="ellipse23240"
       cx="2242.8684"
       cy="1076.7024"
       rx="6.2873735"
       ry="6.287374"
       inkscape:label="9" />
    <ellipse
       style="fill:#ff00ff;fill-opacity:1;stroke:#000000;stroke-width:0.125252;stroke-linecap:round;stroke-linejoin:bevel;stroke-dasharray:none;stroke-dashoffset:0;stroke-opacity:1"
       id="ellipse23242"
       cx="1917.6648"
       cy="1381.0623"
       rx="6.2873735"
       ry="6.287374"
       inkscape:label="8" />
    <ellipse
       style="fill:#ff00ff;fill-opacity:1;stroke:#000000;stroke-width:0.125252;stroke-linecap:round;stroke-linejoin:bevel;stroke-dasharray:none;stroke-dashoffset:0;stroke-opacity:1"
       id="ellipse23244"
       cx="1917.6648"
       cy="1056.35"
       rx="6.2873735"
       ry="6.287374"
       inkscape:label="7" />
  </g>
</svg>
