<?xml version="1.0" encoding="UTF-8" standalone="no"?>
<svg
   width="2970mm"
   height="2100mm"
   viewBox="0 0 2970 2100"
   version="1.1"
   id="svg11156"
   inkscape:version="1.2.1 (9c6d41e410, 2022-07-14)"
   sodipodi:docname="caribou_cnc.svg"
   xmlns:inkscape="http://www.inkscape.org/namespaces/inkscape"
   xmlns:sodipodi="http://sodipodi.sourceforge.net/DTD/sodipodi-0.dtd"
   xmlns="http://www.w3.org/2000/svg"
   xmlns:svg="http://www.w3.org/2000/svg"
   xmlns:rdf="http://www.w3.org/1999/02/22-rdf-syntax-ns#"
   xmlns:cc="http://creativecommons.org/ns#"
   xmlns:dc="http://purl.org/dc/elements/1.1/">
  <metadata
     id="metadata67">
    <rdf:RDF>
      <cc:Work
         rdf:about="">
        <dc:format>image/svg+xml</dc:format>
        <dc:type
           rdf:resource="http://purl.org/dc/dcmitype/StillImage" />
      </cc:Work>
    </rdf:RDF>
  </metadata>
  <sodipodi:namedview
     id="namedview11158"
     pagecolor="#ffffff"
     bordercolor="#666666"
     borderopacity="1.0"
     inkscape:showpageshadow="2"
     inkscape:pageopacity="0.0"
     inkscape:pagecheckerboard="0"
     inkscape:deskcolor="#d1d1d1"
     inkscape:document-units="mm"
     showgrid="false"
     inkscape:zoom="0.14032446"
     inkscape:cx="4596.4903"
     inkscape:cy="4475.3425"
     inkscape:window-width="2516"
     inkscape:window-height="1353"
     inkscape:window-x="20"
     inkscape:window-y="65"
     inkscape:window-maximized="1"
     inkscape:current-layer="layer5"
     showguides="true"
     inkscape:lockguides="false"
     inkscape:document-rotation="0">
    <sodipodi:guide
       position="1191.4993,1214.6852"
       orientation="1,0"
       id="guide22534"
       inkscape:locked="false" />
    <sodipodi:guide
       position="1313.527,1238.7381"
       orientation="1,0"
       id="guide22536"
       inkscape:locked="false" />
    <sodipodi:guide
       position="1590.5764,125.44529"
       orientation="0,-1"
       id="guide22809"
       inkscape:locked="false" />
    <sodipodi:guide
       position="1952.4467,1346.7383"
       orientation="1,0"
       id="guide22887"
       inkscape:locked="false" />
  </sodipodi:namedview>
  <defs
     id="defs11153">
    <clipPath
       clipPathUnits="userSpaceOnUse"
       id="clipPath2666">
      <path
         d="M 2292.88,3696.34 H 3407.93 V 708.841 H 2292.88 Z"
         id="path2664" />
    </clipPath>
    <clipPath
       clipPathUnits="userSpaceOnUse"
       id="clipPath2650">
      <path
         d="M 4346.55,3408.99 H 5743.3 V 703.782 H 4346.55 Z"
         id="path2648" />
    </clipPath>
    <clipPath
       clipPathUnits="userSpaceOnUse"
       id="clipPath2634-3">
      <path
         d="M 559.298,3605.07 H 1634.7 V 2606.26 H 559.298 Z"
         id="path2632-6" />
    </clipPath>
    <clipPath
       clipPathUnits="userSpaceOnUse"
       id="clipPath2634">
      <path
         d="M 559.298,3605.07 H 1634.7 V 2606.26 H 559.298 Z"
         id="path2632" />
    </clipPath>
    <clipPath
       clipPathUnits="userSpaceOnUse"
       id="clipPath2618">
      <path
         d="M 4346.55,3408.99 H 5627.23 V 682.413 H 4346.55 Z"
         id="path2616" />
    </clipPath>
    <clipPath
       clipPathUnits="userSpaceOnUse"
       id="clipPath2602">
      <path
         d="M 1867.76,3696.34 H 3407.93 V 708.841 H 1867.76 Z"
         id="path2600" />
    </clipPath>
  </defs>
  <g
     inkscape:groupmode="layer"
     id="layer9"
     inkscape:label="Layer 9"
     style="display:inline">
    <path
       d="m 1191.8854,1252.1115 38.0916,14.6402 69.9193,-9.7658 46.6834,-106.0286 -4.04,-86.3947 -40.2761,-41.1162 -67.5725,26.284 -36.722,103.5778 z"
       style="display:inline;fill:#280b0b;fill-opacity:1;fill-rule:nonzero;stroke:#000000;stroke-width:0.79756;stroke-dasharray:none;stroke-opacity:1"
       id="path4928"
       inkscape:label="9 Front Leg"
       sodipodi:nodetypes="ccccccccc" />
    <path
       d="m 1983.6989,1167.8913 39.1897,-75.1523 38.8044,11.0439 42.7825,30.1994 31.0061,15.7875 24.7138,68.573 -11.6219,54.8703 -23.8315,24.5421 -20.4234,38.6721 -72.9024,6.3931 -19.7205,-33.8849 -11.4993,-41.656 z"
       style="display:inline;fill:#280b0b;fill-opacity:1;fill-rule:nonzero;stroke:#000000;stroke-width:0.79756;stroke-dasharray:none;stroke-opacity:1"
       id="path2730"
       inkscape:label="9 Hind Leg"
       sodipodi:nodetypes="ccccccccccccc" />
  </g>
  <g
     inkscape:groupmode="layer"
     id="layer8"
     inkscape:label="Layer 8"
     style="display:inline">
    <path
       d="m 579.25792,1216.7511 20.33621,-44.919 11.81864,-16.616 12.35904,-0.4123 0.88454,26.515 5.05006,20.4773 -13.63136,27.7367 -18.68112,7.2591 -10.90491,0.3637 z"
       style="display:inline;fill:#501616;fill-opacity:1;fill-rule:nonzero;stroke:#000000;stroke-width:0.79756;stroke-dasharray:none;stroke-opacity:1"
       id="path2710"
       inkscape:label="8 Face 1" />
    <path
       d="m 721.12532,1183.111 50.95215,-3e-4 33.9682,-35.0299 12.02934,-33.9694 -19.81559,-10.6137 -44.58267,28.3051 -32.55332,36.0923 z"
       style="display:inline;fill:#501616;fill-opacity:1;fill-rule:nonzero;stroke:#000000;stroke-width:0.79756;stroke-dasharray:none;stroke-opacity:1"
       id="path20522"
       inkscape:label="8 Face 2" />
    <path
       id="path4924"
       style="display:inline;fill:#501616;fill-opacity:1;fill-rule:nonzero;stroke:#000000;stroke-width:0.79756;stroke-dasharray:none;stroke-opacity:1"
       inkscape:label="8 Front Leg"
       d="m 1264.9414,966.05576 -38.6922,16.16491 -54.3734,150.62903 -36.004,179.2847 16.9002,37.4737 27.8324,-18.8924 66.2187,-11.2334 66.1293,-26.4522 30.8607,-66.8646 37.4736,-96.2551 2.9389,-113.8902 -36.0035,-46.29076 z m -5.532,112.00914 h 35.3204 c 0.929,0 1.6769,0.7479 1.6769,1.6769 v 28.7332 h 17.9322 c 0.929,0 1.6769,0.7484 1.6769,1.6774 v 48.5552 h 4.792 c 0.929,0 1.6769,0.7478 1.6769,1.6769 v 34.3178 c 0,0.929 -0.7479,1.6769 -1.6769,1.6769 h -11.5435 v 18.8743 c 0,0.929 -0.7479,1.6769 -1.6769,1.6769 h -11.5502 v 30.3015 c 0,0.929 -0.7479,1.6769 -1.6769,1.6769 h -37.7249 c -0.929,0 -1.6774,-0.7479 -1.6774,-1.6769 v -30.3015 h -16.1106 c -0.929,0 -1.6769,-0.7479 -1.6769,-1.6769 v -18.8743 h -6.0829 c -0.929,0 -1.6769,-0.7479 -1.6769,-1.6769 v -34.3178 c 0,-0.9291 0.7479,-1.6769 1.6769,-1.6769 h 6.0829 v -37.9347 c 0,-0.929 0.7479,-1.6769 1.6769,-1.6769 h 11.0748 v -8.9436 c 0,-0.929 0.7478,-1.6774 1.6769,-1.6774 h 6.1334 v -28.7332 c 0,-0.929 0.7479,-1.6769 1.6769,-1.6769 z" />
    <path
       id="path2698"
       style="display:inline;fill:#501616;fill-opacity:1;fill-rule:nonzero;stroke:#000000;stroke-width:0.79756;stroke-dasharray:none;stroke-opacity:1"
       inkscape:label="8 Hind Leg"
       d="m 2005.2931,1050.4082 -32.1267,35.1348 -23.8105,90.148 22.6121,142.9448 23.4027,35.9756 62.7021,24.6104 39.9025,-22.6715 18.4273,-2.559 21.6803,-37.1104 29.1543,-18.9937 20.4437,-53.4769 -2.8453,-91.5716 -24.8656,-48.1015 -38.8731,-36.0939 -48.4611,-14.6368 z m 67.7075,122.4876 h 38.5454 c 0.9291,0 1.6769,0.748 1.6769,1.6769 v 14.9216 h 17.6941 c 0.929,0 1.6774,0.7479 1.6774,1.6769 v 56.2503 c 0,0.9291 -0.7484,1.6769 -1.6774,1.6769 h -16.583 v 45.5316 c 0,0.929 -0.7479,1.6769 -1.6769,1.6769 h -13.0137 v 35.3384 c 0,0.9291 -0.7479,1.6774 -1.6769,1.6774 h -34.4682 c -0.929,0 -1.6769,-0.7483 -1.6769,-1.6774 v -35.7575 h -26.8774 c -0.929,0 -1.6769,-0.7479 -1.6769,-1.6769 v -88.64 c 0,-0.9291 0.7479,-1.6769 1.6769,-1.6769 h 19.4045 v -12.7228 c 0,-0.929 0.7479,-1.6769 1.6769,-1.6769 h 15.2983 v -14.9216 c 0,-0.9289 0.7479,-1.6769 1.6769,-1.6769 z" />
    <path
       d="m 2052.2532,1417.3226 20.2574,42.1858 18.6755,5.9587 14.8227,-14.0904 7.3268,-44.9639 -23.7211,-16.8587 z"
       style="display:inline;fill:#501616;fill-opacity:1;fill-rule:nonzero;stroke:#000000;stroke-width:0.79756;stroke-dasharray:none;stroke-opacity:1"
       id="path2702"
       inkscape:label="8 Hind Leg Small" />
  </g>
  <g
     inkscape:groupmode="layer"
     id="layer7"
     inkscape:label="Layer 7"
     style="display:inline">
    <path
       id="path2694"
       style="display:inline;fill:#782121;fill-opacity:1;fill-rule:nonzero;stroke:#000000;stroke-width:0.79756;stroke-dasharray:none;stroke-opacity:1"
       inkscape:label="7 Face 1"
       d="m 800.2912,1000.9203 -21.20697,5.055 -58.63105,26.54 -128.48931,101.1044 -51.14572,58.1355 4.98988,30.3314 38.67154,30.331 h 24.94886 l 37.42408,-32.859 8.73228,-82.1474 77.34308,-83.4115 60.31984,-5.9944 20.94135,-39.3558 z m -187.42938,174.0473 h 7.03368 c 0.92901,0 1.6769,0.7478 1.6769,1.6769 v 17.6438 c 0,0.9291 -0.74789,1.6769 -1.6769,1.6769 h -0.38809 v 12.7848 c 0,0.929 -0.7479,1.6769 -1.6769,1.6769 h -7.69979 v 7.5716 c 0,0.929 -0.74788,1.6769 -1.6769,1.6769 h -11.82977 c -0.92902,0 -1.6769,-0.7479 -1.6769,-1.6769 v -11.8297 c 0,-0.9291 0.74788,-1.6769 1.6769,-1.6769 h 6.56549 v -19.0061 c 0,-0.929 0.74788,-1.6769 1.6769,-1.6769 h 6.31848 v -7.1644 c 0,-0.9291 0.74788,-1.6769 1.6769,-1.6769 z m -30.90044,6.8243 -18.42368,28.0934 -7.79953,-15.5318 z" />
    <path
       id="path2686-8"
       style="display:inline;fill:#782121;fill-opacity:1;fill-rule:nonzero;stroke:#000000;stroke-width:0.79756;stroke-dasharray:none;stroke-opacity:1"
       inkscape:label="7 Face 2"
       d="m 822.94925,1052.3611 -88.59407,62.4561 -37.62251,63.7605 12.13621,20.6318 44.90372,10.9223 35.19526,-16.9907 54.61321,-74.0306 v -47.3315 z m -29.3982,76.1726 h 8.99273 c 0.92902,0 1.6769,0.7479 1.6769,1.6769 v 12.2742 c 0,0.929 -0.74788,1.6769 -1.6769,1.6769 h -5.69009 v 1.9446 c 0,0.929 -0.74788,1.6769 -1.6769,1.6769 h -3.52692 v 3.0773 c 0,0.929 -0.74788,1.6774 -1.6769,1.6774 h -7.60832 v 13.3036 c 0,0.929 -0.74788,1.6769 -1.6769,1.6769 h -6.21048 c 0.34296,0.3066 0.55966,0.7517 0.55966,1.2501 v 3.5527 c 0,0.929 -0.7484,1.6769 -1.67742,1.6769 h -26.60509 c -0.92902,0 -1.6769,-0.7479 -1.6769,-1.6769 v -3.5527 c 0,-0.9291 0.74788,-1.6769 1.6769,-1.6769 h 13.99811 c -0.34296,-0.3067 -0.55914,-0.7517 -0.55914,-1.2501 v -15.6213 c 0,-0.929 0.74788,-1.6769 1.6769,-1.6769 h 13.23899 v -11.0293 c 0,-0.929 0.74788,-1.6769 1.6769,-1.6769 h 5.36815 v -2.8954 c 0,-0.929 0.74788,-1.6769 1.6769,-1.6769 h 8.04292 v -1.0542 c 0,-0.929 0.74788,-1.6769 1.6769,-1.6769 z" />
    <path
       d="m 857.99949,1007.7275 -11.81834,-19.01693 9.59741,-27.78819 34.04359,-20.96565 8.8196,30.22721 z m 34.67756,-79.02422 -14.4914,5.22876 -37.53058,23.81803 -9.49944,36.66607 13.2464,6.52716 13.53937,18.0771 41.66875,-35.02175 9.8367,-20.11025 z"
       style="display:inline;fill:#782121;fill-opacity:1;fill-rule:nonzero;stroke:#000000;stroke-width:0.79756;stroke-dasharray:none;stroke-opacity:1"
       id="path20524"
       inkscape:label="7 Face 3" />
    <path
       id="path4920"
       style="display:inline;fill:#782121;fill-opacity:1;fill-rule:nonzero;stroke:#000000;stroke-width:0.79756;stroke-dasharray:none;stroke-opacity:1"
       inkscape:label="7 Front Leg"
       d="m 1240.3424,910.8984 -76.5028,53.26445 -22.3005,133.80325 -36.4531,152.154 13.7175,124.5924 16.0182,20.7057 35.9699,9.6469 38.4777,-5.1531 41.6125,-8.1706 93.5338,-54.0127 17.1256,-51.3778 54.0127,-97.4855 19.7611,-144.9121 -7.9045,-77.72546 -69.821,-48.74276 z m 19.067,167.1665 h 35.3204 c 0.929,0 1.6769,0.7479 1.6769,1.6769 v 28.7332 h 17.9322 c 0.929,0 1.6769,0.7484 1.6769,1.6774 v 48.5552 h 4.792 c 0.929,0 1.6769,0.7478 1.6769,1.6769 v 34.3178 c 0,0.929 -0.7479,1.6769 -1.6769,1.6769 h -11.5435 v 18.8743 c 0,0.929 -0.7479,1.6769 -1.6769,1.6769 h -11.5502 v 30.3015 c 0,0.929 -0.7479,1.6769 -1.6769,1.6769 h -37.7249 c -0.929,0 -1.6774,-0.7479 -1.6774,-1.6769 v -30.3015 h -16.1106 c -0.929,0 -1.6769,-0.7479 -1.6769,-1.6769 v -18.8743 h -6.0829 c -0.929,0 -1.6769,-0.7479 -1.6769,-1.6769 v -34.3178 c 0,-0.9291 0.7479,-1.6769 1.6769,-1.6769 h 6.0829 v -37.9347 c 0,-0.929 0.7479,-1.6769 1.6769,-1.6769 h 11.0748 v -8.9436 c 0,-0.929 0.7478,-1.6774 1.6769,-1.6774 h 6.1334 v -28.7332 c 0,-0.929 0.7479,-1.6769 1.6769,-1.6769 z" />
    <path
       id="path2678"
       style="display:inline;fill:#782121;fill-opacity:1;fill-rule:nonzero;stroke:#000000;stroke-width:0.79756;stroke-dasharray:none;stroke-opacity:1"
       inkscape:label="7 Hind Leg"
       d="m 1986.0281,1033.5721 -41.5049,34.1462 -29.1104,93.2418 13.8942,191.5527 29.3998,36.8164 49.2771,27.1094 47.3439,83.7882 50.045,34.2733 28.235,58.63 60.0304,50.6063 20.4504,1.0924 -7.5783,-16.2042 -30.8999,-53.9109 -36.666,-104.0489 13.8984,-79.4706 36.3383,-47.8876 6.7546,-36.1001 16.2864,-11.283 17.5989,-103.5797 -12.8881,-97.8178 -111.4687,-59.1179 z m 86.9725,139.3237 h 38.5454 c 0.9291,0 1.6769,0.748 1.6769,1.6769 v 14.9216 h 17.6941 c 0.929,0 1.6774,0.7479 1.6774,1.6769 v 56.2503 c 0,0.9291 -0.7484,1.6769 -1.6774,1.6769 h -16.583 v 45.5316 c 0,0.929 -0.7479,1.6769 -1.6769,1.6769 h -13.0137 v 35.3384 c 0,0.9291 -0.7479,1.6774 -1.6769,1.6774 h -34.4682 c -0.929,0 -1.6769,-0.7483 -1.6769,-1.6774 v -35.7575 h -26.8774 c -0.929,0 -1.6769,-0.7479 -1.6769,-1.6769 v -88.64 c 0,-0.9291 0.7479,-1.6769 1.6769,-1.6769 h 19.4045 v -12.7228 c 0,-0.929 0.7479,-1.6769 1.6769,-1.6769 h 15.2983 v -14.9216 c 0,-0.9289 0.7479,-1.6769 1.6769,-1.6769 z" />
  </g>
  <g
     inkscape:groupmode="layer"
     id="layer6"
     inkscape:label="Layer 6"
     style="display:inline">
    <path
       id="path2604"
       style="display:inline;fill:#a02c2c;fill-opacity:1;fill-rule:nonzero;stroke:#000000;stroke-width:0.79756;stroke-dasharray:none;stroke-opacity:1"
       inkscape:label="6 Front Leg"
       d="m 1222.4163,878.5133 -46.655,17.74879 -52.5446,53.40811 -8.477,56.919 -17.9193,109.7571 -26.88,181.437 v 55.9987 l -28.4345,72.7702 -35.8396,47.039 -35.83868,44.7988 -20.16001,26.8795 -16.8,16.7995 -14.5588,24.6398 -4.48035,31.3594 v 27.9988 26.88 34.7193 47.039 64.9588 47.039 c 0.6045,34.7614 0.67356,72.4042 1.27796,107.1656 h 43.36014 c -1.29,-34.7614 0.33044,-72.4042 -0.95911,-107.1656 l 1.12034,-47.039 1.11983,-64.9588 1.11983,-44.7988 v -59.3592 l 13.43949,-25.7307 15.67966,-32.5076 31.3598,-22.3997 43.4351,-29.1201 32.7825,-16.4683 35.7797,-44.0097 20.1601,-26.88 22.3991,-26.879 39.3816,4.4798 38.0793,8.9597 136.8904,-81.7299 c 2.2294,-15.1433 4.4596,-30.2867 6.689,-45.4303 l 26.9105,-24.0084 11.1998,-26.8795 c 9.4702,-29.5783 18.9412,-59.1576 28.4117,-88.7367 l 13.3697,-109.3762 0.8666,-82.85337 -30.117,-54.74653 -127.2243,-47.7175 z m -80.6105,96.12902 a 6.2873735,6.287374 0 0 1 6.2874,6.28747 6.2873735,6.287374 0 0 1 -6.2874,6.28695 6.2873735,6.287374 0 0 1 -6.2875,-6.28695 6.2873735,6.287374 0 0 1 6.2875,-6.28747 z m 308.9744,32.31738 a 6.2873735,6.287374 0 0 1 6.2875,6.2875 6.2873735,6.287374 0 0 1 -6.2875,6.2875 6.2873735,6.287374 0 0 1 -6.287,-6.2875 6.2873735,6.287374 0 0 1 6.287,-6.2875 z m -191.3708,71.1052 h 35.3204 c 0.929,0 1.6769,0.7479 1.6769,1.6769 v 28.7332 h 17.9322 c 0.929,0 1.6769,0.7484 1.6769,1.6774 v 48.5552 h 4.792 c 0.929,0 1.6769,0.7478 1.6769,1.6769 v 34.3178 c 0,0.929 -0.7479,1.6769 -1.6769,1.6769 h -11.5435 v 18.8743 c 0,0.929 -0.7479,1.6769 -1.6769,1.6769 h -11.5502 v 30.3015 c 0,0.929 -0.7479,1.6769 -1.6769,1.6769 h -37.7249 c -0.929,0 -1.6774,-0.7479 -1.6774,-1.6769 v -30.3015 h -16.1106 c -0.929,0 -1.6769,-0.7479 -1.6769,-1.6769 v -18.8743 h -6.0829 c -0.929,0 -1.6769,-0.7479 -1.6769,-1.6769 v -34.3178 c 0,-0.9291 0.7479,-1.6769 1.6769,-1.6769 h 6.0829 v -37.9347 c 0,-0.929 0.7479,-1.6769 1.6769,-1.6769 h 11.0748 v -8.9436 c 0,-0.929 0.7478,-1.6774 1.6769,-1.6774 h 6.1334 v -28.7332 c 0,-0.929 0.7479,-1.6769 1.6769,-1.6769 z m 143.2512,186.5003 a 6.2873735,6.287374 0 0 1 6.287,6.2875 6.2873735,6.287374 0 0 1 -6.287,6.2874 6.2873735,6.287374 0 0 1 -6.2874,-6.2874 6.2873735,6.287374 0 0 1 6.2874,-6.2875 z m -308.5021,74.7143 a 6.2873735,6.287374 0 0 1 6.2875,6.2875 6.2873735,6.287374 0 0 1 -6.2875,6.2874 6.2873735,6.287374 0 0 1 -6.2874,-6.2874 6.2873735,6.287374 0 0 1 6.2874,-6.2875 z" />
    <path
       id="path2620"
       style="display:inline;fill:#a02c2c;fill-opacity:1;fill-rule:nonzero;stroke:#000000;stroke-width:0.79756;stroke-dasharray:none;stroke-opacity:1"
       inkscape:label="6 Hind Leg"
       d="m 2034.4469,987.67821 -82.1469,0.98392 -56.7356,66.21507 -4.4803,64.9583 -8.9597,78.3989 v 89.5976 l 8.9597,94.0785 61.1352,51.572 26.6408,11.7115 23.0213,56.6875 29.1197,32.2889 33.599,31.3594 29.1191,47.039 47.0395,38.0793 24.6394,29.1197 15.6801,35.8391 -4.4803,69.4387 -13.44,60.4784 -17.9193,62.7192 c 0,25.3764 0.031,40.2487 0,65.6255 h 36.0546 c 0.3903,-25.3768 1.6399,-40.2491 2.0299,-65.6255 l 17.9198,-49.2791 20.1595,-58.2389 13.4395,-67.199 10.5859,-38.0793 v -55.9986 l -30.7454,-55.9992 -22.3992,-47.039 -20.16,-58.2388 9.7385,-69.4211 36.9341,-50.7147 4.9703,-26.1152 27.729,-29.6561 8.9592,-38.0793 13.6674,-52.5111 -4.9904,-77.6169 12.2716,-26.2646 21.8389,-1.3963 47.039,-10.0795 -17.9203,-16.8 -42.5587,-31.3593 -45.0215,-17.618 -58.0166,1.9383 -22.3997,-17.9198 -53.759,-13.4395 z m -116.782,62.38429 a 6.2873735,6.287374 0 0 1 6.2874,6.2875 6.2873735,6.287374 0 0 1 -6.2874,6.2875 6.2873735,6.287374 0 0 1 -6.2875,-6.2875 6.2873735,6.287374 0 0 1 6.2875,-6.2875 z m 325.2034,20.3523 a 6.2873735,6.287374 0 0 1 6.2874,6.2874 6.2873735,6.287374 0 0 1 -6.2874,6.2875 6.2873735,6.287374 0 0 1 -6.2875,-6.2875 6.2873735,6.287374 0 0 1 6.2875,-6.2874 z m -169.8677,102.481 h 38.5454 c 0.9291,0 1.6769,0.748 1.6769,1.6769 v 14.9216 h 17.6941 c 0.929,0 1.6774,0.7479 1.6774,1.6769 v 56.2503 c 0,0.9291 -0.7484,1.6769 -1.6774,1.6769 h -16.583 v 45.5316 c 0,0.929 -0.7479,1.6769 -1.6769,1.6769 h -13.0137 v 35.3384 c 0,0.9291 -0.7479,1.6774 -1.6769,1.6774 h -34.4682 c -0.929,0 -1.6769,-0.7483 -1.6769,-1.6774 v -35.7575 h -26.8774 c -0.929,0 -1.6769,-0.7479 -1.6769,-1.6769 v -88.64 c 0,-0.9291 0.7479,-1.6769 1.6769,-1.6769 h 19.4045 v -12.7228 c 0,-0.929 0.7479,-1.6769 1.6769,-1.6769 h 15.2983 v -14.9216 c 0,-0.9289 0.7479,-1.6769 1.6769,-1.6769 z m 159.8001,99.5966 a 6.2873735,6.287374 0 0 1 6.2874,6.2874 6.2873735,6.287374 0 0 1 -6.2874,6.2875 6.2873735,6.287374 0 0 1 -6.2875,-6.2875 6.2873735,6.287374 0 0 1 6.2875,-6.2874 z m -315.1358,102.2826 a 6.2873735,6.287374 0 0 1 6.2874,6.2875 6.2873735,6.287374 0 0 1 -6.2874,6.2869 6.2873735,6.287374 0 0 1 -6.2875,-6.2869 6.2873735,6.287374 0 0 1 6.2875,-6.2875 z" />
    <path
       id="path22692"
       style="display:inline;fill:#a02c2c;fill-opacity:1;fill-rule:nonzero;stroke:#000000;stroke-width:0.799953;stroke-dasharray:none;stroke-opacity:1"
       inkscape:label="6 Head"
       d="m 890.96887,906.98236 c -0.1237,0.0514 -0.24734,0.10257 -0.37103,0.154 v 5.2e-4 c -9.03593,3.77974 -18.09642,7.51098 -27.11721,11.32075 -7.11999,4.29057 -14.23895,8.58284 -21.35942,12.8726 -5.65371,8.49864 -11.30835,16.99695 -16.96124,25.49612 -2.21523,7.74969 -4.42813,15.4998 -6.64249,23.24974 -18.99934,-1.69847 -37.99869,-3.39777 -56.99807,-5.09581 -16.39034,10.34795 -32.80568,20.65827 -49.18201,31.02702 -18.61262,13.1921 -37.24429,26.3601 -55.84517,39.5671 -23.71816,20.2301 -47.45938,40.436 -71.1631,60.6811 -20.21862,20.996 -40.43547,41.9936 -60.65521,62.9884 -3.14071,9.8166 -6.28171,19.6332 -9.42372,29.4493 3.14213,7.8598 6.28505,15.7196 9.4294,23.5784 8.98955,10.9266 17.95238,21.8798 26.95495,32.7929 9.37681,7.4233 18.75495,14.8452 28.1311,22.2694 h 41.18146 c 14.97006,-11.9811 29.96875,-23.9268 44.86031,-36.0055 4.87218,-3.935 9.74399,-7.87 14.61616,-11.805 19.80907,-0.01 39.6196,0.014 59.4279,-0.011 15.52146,-1.3637 31.04322,-2.7261 46.5646,-4.0907 6.10321,-3.1915 12.18107,-6.4378 18.29914,-9.5968 13.19111,-5.188 26.38316,-10.3742 39.57381,-15.5634 8.81876,-9.8929 17.63724,-19.7862 26.45524,-29.6798 5.91611,-14.6103 11.85825,-29.2133 17.75395,-43.8299 1.80265,-9.7842 3.65247,-19.5663 5.42551,-29.3517 -0.85504,-10.2643 -1.70806,-20.5288 -2.56418,-30.793 -4.49036,-10.5877 -8.98076,-21.1761 -13.47102,-31.7639 2.27423,-4.9616 4.47381,-9.9622 6.79494,-14.8994 3.70741,-6.2831 7.38214,-12.5885 11.10991,-18.8577 6.37555,-7.87573 12.75075,-15.75192 19.12648,-23.62752 v -35.15444 c -3.80825,-6.44915 -7.57441,-12.92678 -11.40912,-19.35799 -4.18046,-5.32153 -8.36195,-10.64192 -12.54187,-15.96389 z m -15.96802,151.28174 c 0.26821,0.01 0.53638,0.031 0.80202,0.07 2.56245,0.4355 4.6516,2.7573 4.7315,5.3671 0.27955,3.014 -2.27874,5.8871 -5.28805,6.0394 -2.70373,0.2312 -5.41578,-1.6837 -6.0048,-4.3491 -0.74656,-2.6741 0.81425,-5.7197 3.40341,-6.7086 0.74561,-0.3139 1.55132,-0.4404 2.35592,-0.4186 z m -81.4498,70.2696 h 8.99273 c 0.92902,0 1.6769,0.7479 1.6769,1.6769 v 12.2742 c 0,0.929 -0.74788,1.6769 -1.6769,1.6769 h -5.69009 v 1.9446 c 0,0.929 -0.74788,1.6769 -1.6769,1.6769 h -3.52692 v 3.0773 c 0,0.929 -0.74788,1.6774 -1.6769,1.6774 h -7.60832 v 13.3036 c 0,0.929 -0.74788,1.6769 -1.6769,1.6769 h -6.21048 c 0.34296,0.3066 0.55966,0.7517 0.55966,1.2501 v 3.5527 c 0,0.929 -0.7484,1.6769 -1.67742,1.6769 h -26.60509 c -0.92902,0 -1.6769,-0.7479 -1.6769,-1.6769 v -3.5527 c 0,-0.9291 0.74788,-1.6769 1.6769,-1.6769 h 13.99811 c -0.34296,-0.3067 -0.55914,-0.7517 -0.55914,-1.2501 v -15.6213 c 0,-0.929 0.74788,-1.6769 1.6769,-1.6769 h 13.23899 v -11.0293 c 0,-0.929 0.74788,-1.6769 1.6769,-1.6769 h 5.36815 v -2.8954 c 0,-0.929 0.74788,-1.6769 1.6769,-1.6769 h 8.04292 v -1.0542 c 0,-0.929 0.74788,-1.6769 1.6769,-1.6769 z m -180.47943,46.9393 c 0.2028,-0.011 0.40542,-3e-4 0.58963,0.024 h 6.20376 v -5e-4 c 0.8794,-0.047 1.34418,0.9033 1.1777,1.6717 -0.0169,5.7885 0.034,11.5817 -0.0253,17.3675 -0.1552,0.8319 -1.10024,1.0047 -1.80971,0.9002 -0.50703,0.079 -0.0925,1.0793 -0.22892,1.5291 -0.017,4.0053 0.0336,8.0154 -0.0258,12.0178 -0.15248,0.8984 -1.18621,1.0125 -1.92288,0.9157 h -7.42849 c -0.0144,2.7756 0.0286,5.5547 -0.0217,8.3282 -0.15496,0.904 -1.18636,1.0128 -1.92702,0.9199 -3.75813,-0.018 -7.52055,0.036 -11.2758,-0.027 -0.8502,-0.1567 -1.00667,-1.1278 -0.90072,-1.8443 0.017,-3.7837 -0.0335,-7.5719 0.0258,-11.3528 0.15852,-0.8486 1.12912,-1.0039 1.8464,-0.9002 h 6.37016 c 0.0143,-6.5875 -0.0285,-13.1784 0.0217,-19.7637 0.15475,-0.9029 1.18612,-1.0122 1.92701,-0.9204 h 6.04718 c 0.0158,-2.6414 -0.0311,-5.2867 0.0238,-7.9256 0.11549,-0.6723 0.72487,-0.9054 1.33325,-0.9394 z m 217.96344,9.2831 c 2.93012,0.1108 5.45298,2.7676 5.41053,5.6999 0.0912,2.9419 -2.40593,5.6502 -5.348,5.7893 -2.73328,0.2174 -5.44754,-1.7521 -6.00067,-4.4529 -0.67834,-2.6519 0.87244,-5.6321 3.4308,-6.6074 0.78769,-0.3326 1.65593,-0.4516 2.50734,-0.4289 z" />
  </g>
  <g
     inkscape:groupmode="layer"
     id="layer5"
     inkscape:label="Layer 5"
     style="display:inline">
    <path
       id="path3424"
       style="display:inline;fill:#c83737;fill-opacity:1;stroke:#000000;stroke-width:0.79756;stroke-linecap:butt;stroke-linejoin:miter;stroke-dasharray:none;stroke-opacity:1"
       inkscape:label="5 Body 4"
       d="m 2034.4469,987.67821 -82.1469,0.98392 -0.081,444.82037 26.6408,11.7115 23.9742,16.4558 215.9615,-103.6143 4.9703,-26.1152 27.729,-29.6561 22.6266,-90.5904 -4.9904,-77.6169 12.2716,-26.2646 21.8389,-1.3963 47.039,-10.0795 -17.9203,-16.8 -42.5587,-31.3593 -45.0215,-17.618 -58.0166,1.9383 -22.3997,-17.9198 -53.759,-13.4395 z m 208.4214,82.73659 a 6.2873735,6.287374 0 0 1 6.2874,6.2874 6.2873735,6.287374 0 0 1 -6.2874,6.2875 6.2873735,6.287374 0 0 1 -6.2875,-6.2875 6.2873735,6.287374 0 0 1 6.2875,-6.2874 z m -10.0676,202.0776 a 6.2873735,6.287374 0 0 1 6.2874,6.2874 6.2873735,6.287374 0 0 1 -6.2874,6.2875 6.2873735,6.287374 0 0 1 -6.2875,-6.2875 6.2873735,6.287374 0 0 1 6.2875,-6.2874 z" />
    <path
       id="Body_2"
       style="display:inline;fill:#c83737;fill-opacity:1;fill-rule:nonzero;stroke:#000000;stroke-width:0.79756;stroke-dasharray:none;stroke-opacity:1"
       inkscape:label="5 Body 3"
       d="m 1320.3602,878.5133 -7.042,-0.39878 0.2088,527.75038 121.0852,30.8117 h 48.4363 l 53.051,18.0351 72.6545,13.7211 82.3417,13.7207 h 101.7163 l 77.4986,-13.7207 75.0761,-16.0078 6.8316,-18.9425 0.082,-444.82037 -86.8325,-14.17898 -75.076,-16.0078 h -77.4986 l -92.029,-21.94698 h -35.1162 -35.1168 l -53.2799,-6.03064 -53.2805,-6.03064 z m 130.42,128.4464 c 3.4725,-10e-5 6.2876,2.815 6.2875,6.2875 10e-5,3.4725 -2.815,6.2876 -6.2875,6.2875 -3.4723,-2e-4 -6.2871,-2.8152 -6.287,-6.2875 -10e-5,-3.4723 2.8147,-6.2873 6.287,-6.2875 z m 466.8847,43.1028 c 3.4725,0 6.2875,2.815 6.2874,6.2875 10e-5,3.4725 -2.8149,6.2875 -6.2874,6.2875 -3.4725,10e-5 -6.2876,-2.815 -6.2875,-6.2875 -10e-5,-3.4725 2.815,-6.2876 6.2875,-6.2875 z m -515.0043,214.5027 c 3.4723,2e-4 6.2871,2.8152 6.287,6.2875 0,3.4723 -2.8147,6.2872 -6.287,6.2874 -3.4724,0 -6.2874,-2.815 -6.2874,-6.2874 -10e-5,-3.4725 2.8149,-6.2875 6.2874,-6.2875 z m 515.0043,110.2098 c 3.4725,0 6.2875,2.815 6.2874,6.2875 -3e-4,3.4722 -2.8152,6.2869 -6.2874,6.2869 -3.4723,10e-5 -6.2872,-2.8146 -6.2875,-6.2869 -10e-5,-3.4725 2.815,-6.2876 6.2875,-6.2875 z"
       sodipodi:nodetypes="ccccccccccccccccccccccssssssssssssssssssss" />
    <path
       style="display:inline;fill:#c83737;stroke:#000000;stroke-width:0.79756;stroke-linecap:butt;stroke-linejoin:miter;stroke-dasharray:none;stroke-opacity:1"
       d="m 1191.4993,890.23471 30.9169,-11.72125 90.902,-0.39894 0.2088,527.75038 -122.0131,-38.784 z"
       id="path3430"
       inkscape:label="5 Body 2"
       sodipodi:nodetypes="cccccc" />
    <path
       id="path2582"
       style="display:inline;fill:#c83737;fill-opacity:1;fill-rule:nonzero;stroke:#000000;stroke-width:0.79442;stroke-dasharray:none;stroke-opacity:1"
       inkscape:label="5 Body 1"
       d="m 1191.4994,890.2299 -15.7381,6.02754 -52.1606,53.23706 -32.043,0.55914 h -40.0978 l -52.30022,-0.55552 -25.48681,0.0346 -75.30445,0.21239 -112.10582,275.15889 23.16138,25.1887 28.95895,42.3251 31.18621,55.6906 20.04891,64.6018 33.4145,28.9594 31.86782,13.007 h 35.64227 42.32506 l 39.4172,-13.007 h 33.414 l 85.8144,-74.5934 z m -49.6936,84.41242 a 6.2873735,6.287374 0 0 1 6.2874,6.28747 6.2873735,6.287374 0 0 1 -6.2874,6.28695 6.2873735,6.287374 0 0 1 -6.2875,-6.28695 6.2873735,6.287374 0 0 1 6.2875,-6.28747 z M 874.805,1057.7153 a 6.2873735,6.287374 0 0 1 6.28747,6.2869 6.2873735,6.287374 0 0 1 -6.28747,6.2875 6.2873735,6.287374 0 0 1 -6.28747,-6.2875 6.2873735,6.287374 0 0 1 6.28747,-6.2869 z m -44.11669,126.5003 a 6.2873735,6.287374 0 0 1 6.28748,6.2874 6.2873735,6.287374 0 0 1 -6.28748,6.2875 6.2873735,6.287374 0 0 1 -6.28747,-6.2875 6.2873735,6.287374 0 0 1 6.28747,-6.2874 z m 263.47019,155.0639 a 6.2873735,6.287374 0 0 1 6.2875,6.2875 6.2873735,6.287374 0 0 1 -6.2875,6.2874 6.2873735,6.287374 0 0 1 -6.2874,-6.2874 6.2873735,6.287374 0 0 1 6.2874,-6.2875 z" />
    <path
       id="path437"
       style="display:inline;opacity:1;fill:#c83737;fill-opacity:1;stroke:#000000;stroke-width:0.794421;stroke-miterlimit:10;stroke-dasharray:none;stroke-dashoffset:0;stroke-opacity:1"
       class="st0"
       inkscape:label="5 Head &amp; Rrack"
       d="m 1027.4655,101.49716 -10.5508,13.17026 c 0,0 -8.2648,20.02919 -12.2582,19.63446 -3.9934,-0.39473 -9.40304,-15.86983 -9.40304,-15.86983 l -10.46964,-11.14247 c 0,0 19.38018,47.88953 19.96258,51.67178 0.5826,3.7822 8.1334,33.19797 8.1334,33.19797 0,0 0.4568,50.70467 0.4568,58.03315 0,7.32848 -6.8746,22.13207 -9.7736,27.342 -2.8991,5.20992 -29.69945,14.05547 -29.69945,14.05547 l -23.15672,-14.58774 -18.70635,-29.67777 -7.87808,-22.61257 -20.43699,-12.78424 -14.49111,-7.62899 -20.69537,-18.98075 -12.50053,-7.85379 -0.8754,20.04529 44.6505,40.53344 16.15509,34.60254 -35.90427,6.99182 -53.41069,-2.28564 -69.55648,-40.24923 34.65421,39.27461 54.74343,27.69392 25.69869,13.97899 22.20847,40.24199 -9.02633,19.8055 -42.62375,-1.94096 -45.95585,-18.42678 -14.61203,7.00732 c 0,0 39.77913,23.49142 46.09434,24.20369 6.3151,0.71224 40.91947,12.32845 40.91947,12.32845 l 31.89366,21.55579 27.31668,30.15371 57.34999,37.99407 76.84697,59.13954 44.5622,52.80608 c 0,0 25.1504,66.29526 25.1504,70.83547 0,4.5402 -19.9306,67.11786 -19.9306,67.11786 l -83.5065,71.12176 -106.97697,49.937 -79.64527,31.76292 -38.72529,5.42965 -32.30035,-19.68924 -54.36826,-50.40158 -26.09556,-44.20867 -5.45135,-33.4362 22.56607,-40.20013 -24.93957,23.20117 -28.52694,-46.94029 -31.76447,-47.26843 -11.72538,-47.76091 3.56619,-32.77164 -4.13463,-23.75979 -14.92157,58.99743 14.58619,69.45622 42.63047,70.75744 c 0,0 9.72639,29.40854 9.28419,33.86615 -0.4422,4.45765 -17.46663,9.15087 -17.46663,9.15087 0,0 -26.74942,-19.17008 -29.13259,-23.80372 -2.38334,-4.63358 -21.20439,-43.96217 -21.20439,-43.96217 l -13.83172,-22.03845 2.16369,-36.48976 -10.11049,-28.27373 c 0,0 -0.66611,49.86384 -0.66611,53.34248 0,3.47868 -10.71407,0.87695 -10.71407,0.87695 l -17.91622,-41.20937 2.34507,-43.78596 -11.7383,-17.83922 0.1509,62.0882 3.16053,32.52204 18.05626,31.86834 24.7525,33.66462 c 0,0 3.18636,12.22092 3.18636,16.05018 0,3.82925 2.13855,11.92957 -2.28978,13.39711 -4.42846,1.46755 -11.991,-2.79879 -11.991,-2.79879 0,0 -34.17818,-14.52978 -37.09851,-18.28209 -2.92034,-3.75228 -15.50838,-33.914 -17.00775,-37.3724 -1.49949,-3.45838 -4.27204,-14.23193 -5.10408,-18.59576 -0.83204,-4.36386 -5e-5,-3.27309 -5.19451,-10.75438 -5.19449,-7.48137 -4.0504,0.0636 -4.0504,0.0636 l -6.71122,12.88862 -14.29732,-13.51236 -2.20296,14.70557 8.96069,19.94917 12.11399,33.04604 37.24527,33.20779 41.69616,26.01134 c 0,0 35.59071,7.83464 39.45961,8.66665 3.86889,0.83201 34.10118,10.95694 36.37504,11.67991 2.27387,0.72299 33.20957,28.82281 36.77708,31.55828 3.56752,2.7355 25.20105,24.05434 25.20105,24.05434 0,0 58.32543,41.96762 61.61329,43.23768 3.28802,1.27003 22.36815,8.51007 22.36815,8.51007 l -4.88601,9.88312 -23.17843,7.8822 -10.31255,2.22054 c 0,0 -22.50772,1.01791 -26.34051,1.31206 -3.83279,0.29362 -24.35964,0.27999 -25.80979,-0.0124 -1.45031,-0.29239 -16.24413,-3.21789 -18.77405,-3.21789 -2.52992,0 -24.79481,-10.92831 -34.34209,-14.45338 -9.54728,-3.52505 -11.15037,-12.628 -13.62966,-14.51901 -2.47943,-1.89104 -15.73183,-17.92173 -18.03404,-19.35438 -2.30234,-1.43263 -18.47321,-16.38527 -20.66954,-18.13222 -2.19618,-1.74693 -25.99445,-24.51461 -27.07173,-26.15086 -1.07745,-1.63618 -19.8851,-18.34772 -19.8851,-18.34772 0,0 -12.32443,-7.6091 -13.69735,-8.96741 -1.37307,-1.35827 -6.64125,-7.20024 -8.32921,-7.7742 -1.68796,-0.57394 -4.74236,-0.66973 -6.52828,-0.66973 -1.78592,0 -4.443,-1.16353 -11.69024,2.57659 -7.24725,3.74015 -0.7643,9.05784 -0.7643,9.05784 l 8.20053,8.99584 8.58346,8.82013 5.53248,9.84953 7.19491,12.17858 21.94078,24.57938 c 0,0 21.83583,23.71302 23.43733,24.30136 1.6015,0.58831 3.58789,0.5658 6.79131,6.25853 3.20329,5.69272 -1.3958,2.52595 -4.2757,2.52595 -2.87991,0 -9.74108,-6.58741 -12.37599,-8.6341 -2.63508,-2.04667 -13.79143,-10.85975 -15.83728,-12.90567 -2.04586,-2.04591 -13.46087,-14.5754 -14.90917,-15.99903 -1.44828,-1.42361 -9.60775,-9.20948 -13.70407,-12.13207 -4.09618,-2.92264 -12.68839,-13.09696 -14.72778,-14.54795 -2.03925,-1.45103 -5.75196,-10.45991 -6.90191,-12.44679 -1.14981,-1.98691 -1.7359,-11.85111 -2.29908,-14.15314 -0.56304,-2.30203 -1.31362,-11.97498 -1.31362,-11.97498 0,0 -1.24798,-13.44634 -1.24798,-14.64096 0,-1.19465 -0.81213,-6.81324 -3.11402,-9.78804 -2.30178,-2.97473 -0.54161,-1.7573 -4.59766,-2.80241 -4.05617,-1.04507 -3.86074,2.52594 -3.86074,2.52594 l 1.22163,24.53649 1.83141,16.63774 0.36277,19.50734 c 0,0 -0.30081,7.89697 -1.60972,7.53494 -1.30905,-0.36208 -1.19482,-0.34463 -4.01216,-4.00027 -2.81733,-3.65566 -2.5e-4,-6.19983 -0.40721,-7.08691 -0.4071,-0.88705 1.39551,-8.79397 1.60352,-10.09395 0.20801,-1.3 1.23437,-5.28789 0.9002,-6.49935 -0.33431,-1.21152 -2.36911,-3.29592 -4.47466,-3.29592 -2.10556,0 -4.83702,5.42371 -6.22287,6.67039 -1.38572,1.24669 -3.83698,12.21373 -3.83698,12.21373 l 0.28474,15.98817 6.21822,10.61795 9.41493,9.26404 16.1339,14.28595 c 0,0 24.08851,36.76563 26.3431,38.3961 2.25443,1.63052 2.49288,1.24737 6.22339,3.9393 3.73063,2.69192 1.65018,4.75522 1.44332,7.18974 -0.20686,2.43452 -2.69549,6.0206 -3.92844,7.04557 -1.23296,1.0249 -9.96547,1.36855 -11.282,1.16116 -1.31668,-0.20741 -11.58752,-6.83864 -12.0034,-7.82071 -0.41602,-0.98213 -4.30775,-17.67747 -4.30775,-17.67747 0,0 -3.1188,-5.80701 -3.92637,-6.97529 -0.80772,-1.16825 -3.87832,-8.77784 -3.87832,-10.68616 0,-1.90829 -2.99568,-8.01812 -2.99568,-8.01812 l -4.87723,1.24695 0.33125,43.57874 -15.35823,1.31413 5.65598,9.93686 12.69432,4.94595 7.90391,12.56048 18.62057,8.5142 12.81213,2.67529 11.64735,6.57737 c 0,0 1.41971,12.8629 0.81598,14.5009 -0.60374,1.6381 -6.44044,7.1861 -6.44044,7.1861 l -10.70115,2.865 h -16.97778 l -12.44937,-3.0877 -8.36796,-6.2394 -3.0794,-9.3436 -7.29258,-8.585 -9.96683,-5.61671 7.61865,25.82991 2.65617,26.9932 -10.94248,-0.077 9.51518,8.3592 16.73489,31.3887 32.05128,7.0089 29.61369,-22.3232 41.79797,-31.5825 42.13024,-36.6758 21.0783,-13.58004 37.65714,-16.70596 43.27953,-2.46342 7.02489,1.35754 -48.76188,30.74228 -55.97643,39.6477 -71.13209,60.6387 -60.63816,62.9718 -9.32863,29.1507 9.32863,23.3237 26.82162,32.6527 27.98589,22.1548 h 40.81249 l 29.15481,-23.3232 30.31908,-24.4884 h 59.47027 l 46.55737,-4.0897 c 22.88569,-55.8271 55.69586,-138.6888 112.1053,-275.15883 l 75.30445,-0.21239 -1.76889,-11.73727 102.76062,-27.71924 c 0,0 60.8945,-33.22048 66.4332,-36.52077 5.5388,-3.30023 13.9557,-16.55609 13.9557,-16.55609 l 15.3888,-25.96792 8.7705,-14.86008 1.8376,-16.39073 44.8246,-41.44243 -42.4614,1.55804 -1.2894,-49.55098 2.6707,-42.93846 2.5915,-47.94178 29.4308,-12.38891 45.7445,0.87695 41.429,-12.07988 29.0556,-22.62343 39.1816,-42.05169 23.2218,-28.84579 c 0,0 26.0824,-6.4487 30.0261,-6.4487 3.9439,0 34.3175,-0.76243 44.9497,-0.67799 10.6321,0.0845 35.6242,-14.37897 35.6242,-14.37897 l 58.2869,-35.57974 41.4377,-32.03216 13.8958,-32.00889 -0.8077,-32.99902 -12.8442,4.53822 2.1172,15.15205 -15.7737,26.64488 -24.6693,18.06402 -30.334,26.02373 -2.6738,-22.88646 -12.9733,18.02888 -14.1356,18.04334 -35.4066,8.2026 -6.9299,-15.56959 -13.2761,-15.10967 10.7931,-9.25577 c 0,0 19.6696,-13.79032 23.7629,-19.06034 4.0933,-5.26996 3.9181,-16.67288 3.9181,-16.67288 0,0 -31.7284,22.61867 -34.4387,24.24452 -2.7102,1.62575 -22.9811,1.45985 -22.9811,1.45985 l -8.8532,-15.9706 -7.6703,24.44554 c 0,0 -41.7519,52.27144 -44.4526,54.49952 -2.7008,2.22805 -24.8693,17.52347 -24.8693,17.52347 l -105.7325,76.84337 c 0,0 -38.3916,5.88285 -44.6154,5.88285 -6.2238,0 -36.8179,-7.79074 -36.8179,-7.79074 l -11.5678,-56.70145 15.489,-13.08654 28.915,-31.44717 39.023,-51.06355 24.7039,-39.78414 20.9863,-16.8708 40.937,-15.63781 69.0718,-3.58376 34.7782,0.40049 c 0,0 27.1255,4.65347 36.4257,4.65347 9.3,0 10.6065,-2.90504 16.6951,-4.01991 6.0887,-1.11488 5.8358,-15.4833 5.8358,-15.4833 l -18.3652,6.4053 -29.1941,-3.02772 -29.9615,-14.20844 -40.0425,1.76888 -53.758,8.79378 -49.46,2.74816 -5.179,-21.0783 c 0,0 -8.0967,-10.08483 -8.0967,-12.45868 0,-2.37387 0.5721,-65.2818 0.5721,-65.2818 l 7.0533,-44.75954 9.1984,-6.40994 -8.6083,-8.88783 -14.3929,1.7632 -14.2441,51.65472 -7.0145,116.85954 -6.9283,29.654 -30.6596,54.63233 c 0,0 4.6946,-49.32956 6.4487,-58.01869 1.7542,-8.68907 4.6123,-62.96809 4.024,-68.67952 -0.5884,-5.7114 0.6379,-53.38037 -1.5999,-59.1349 -2.2377,-5.75451 -7.5323,12.93255 -7.5323,12.93255 l -12.7817,59.27545 -6.8761,81.5051 c 0,0 -27.5481,50.2418 -29.6927,52.95078 -2.1445,2.709 -17.8925,10.80695 -21.8969,6.74584 -4.0046,-4.06116 -17.7521,-23.5375 -16.6935,-25.96534 1.0588,-2.42782 0.2692,-28.15539 0.2692,-28.15539 l 25.2471,-32.74632 18.2484,-63.64573 c 0,0 6.3492,-57.81054 6.9376,-61.60244 0.5883,-3.79185 -2.2691,-49.95923 -2.2691,-49.95923 l -4.0855,-12.05611 -7.535,-5.31544 -5.2963,42.27288 -18.2077,99.63423 -31.6311,51.92809 -17.0517,-2.68924 -15.9386,-13.51184 3.6432,-103.54045 3.9941,-12.71137 2.9425,-23.97011 -12.6184,13.90148 -10.619,-45.11973 c 0,0 -2.4531,-41.30123 -2.4531,-44.25104 0,-2.94939 -1.7285,-29.61912 -1.729,-29.62714 z M 793.55105,1128.5337 h 8.99273 c 0.92902,0 1.6769,0.7479 1.6769,1.6769 v 12.2742 c 0,0.929 -0.74788,1.6769 -1.6769,1.6769 h -5.69009 v 1.9446 c 0,0.929 -0.74788,1.6769 -1.6769,1.6769 h -3.52692 v 3.0773 c 0,0.929 -0.74788,1.6774 -1.6769,1.6774 h -7.60832 v 13.3036 c 0,0.929 -0.74788,1.6769 -1.6769,1.6769 h -6.21048 c 0.34296,0.3066 0.55966,0.7517 0.55966,1.2501 v 3.5527 c 0,0.929 -0.7484,1.6769 -1.67742,1.6769 h -26.60509 c -0.92902,0 -1.6769,-0.7479 -1.6769,-1.6769 v -3.5527 c 0,-0.9291 0.74788,-1.6769 1.6769,-1.6769 h 13.99811 c -0.34296,-0.3067 -0.55914,-0.7517 -0.55914,-1.2501 v -15.6213 c 0,-0.929 0.74788,-1.6769 1.6769,-1.6769 h 13.23899 v -11.0293 c 0,-0.929 0.74788,-1.6769 1.6769,-1.6769 h 5.36815 v -2.8954 c 0,-0.929 0.74788,-1.6769 1.6769,-1.6769 h 8.04292 v -1.0542 c 0,-0.929 0.74788,-1.6769 1.6769,-1.6769 z m -180.68923,46.4339 h 7.03368 c 0.929,0 1.6769,0.7478 1.6769,1.6769 v 17.6438 c 0,0.9291 -0.7479,1.6769 -1.6769,1.6769 h -0.38809 v 12.7848 c 0,0.929 -0.74791,1.6769 -1.6769,1.6769 h -7.69979 v 7.5716 c 0,0.929 -0.74788,1.6769 -1.6769,1.6769 h -11.82977 c -0.92902,0 -1.6769,-0.7479 -1.6769,-1.6769 v -11.8297 c 0,-0.9291 0.74788,-1.6769 1.6769,-1.6769 h 6.56549 v -19.0061 c 0,-0.929 0.74788,-1.6769 1.6769,-1.6769 h 6.31848 v -7.1644 c 0,-0.9291 0.74788,-1.6769 1.6769,-1.6769 z" />
  </g>
  <g
     inkscape:groupmode="layer"
     id="layer4"
     inkscape:label="Layer 4"
     style="display:inline">
    <path
       id="path2652"
       style="display:inline;fill:#d35f5f;fill-opacity:1;fill-rule:nonzero;stroke:#000000;stroke-width:0.79756;stroke-dasharray:none;stroke-opacity:1"
       inkscape:label="4 Hind Leg"
       d="m 2034.4469,987.67821 -82.1469,0.98392 -56.3496,66.41407 -4.4803,64.9588 -8.9597,78.3983 v 89.5982 l 8.9597,94.0785 60.7492,51.3725 26.6408,11.7115 58.2073,39.9541 h 42.5592 l 71.6783,15.6792 85.1183,17.9198 33.5995,8.9597 33.5995,24.6393 v 38.0793 l 2.2396,89.5987 20.16,69.4381 8.9597,58.2388 8.9597,44.7994 7.168,121.7672 c 14.3197,-0.3987 27.4345,-0.3989 40.4234,-0.3989 -0.7027,-23.874 0.1507,-45.9754 -0.5524,-69.849 v -28.4598 -47.6989 l -22.3992,-40.3195 -4.4798,-26.8795 6.72,-62.7186 6.7195,-49.2787 13.4395,-78.3988 v -64.9588 -49.2787 l -13.4395,-17.9198 h -26.8795 l -40.319,-15.6797 -31.3593,-11.1998 -35.8397,-17.9198 -24.3474,-35.2738 4.9703,-26.1152 27.729,-29.6561 10.2573,-43.0661 12.3693,-47.5243 -4.9904,-77.6169 12.2716,-26.2646 21.8389,-1.3963 47.039,-10.0795 -17.9203,-16.8 -42.5587,-31.3593 -45.0215,-17.618 -58.0166,1.9383 -22.3997,-17.9198 -53.759,-13.4395 z m -116.782,62.38429 a 6.2873735,6.287374 0 0 1 6.2874,6.2875 6.2873735,6.287374 0 0 1 -6.2874,6.2875 6.2873735,6.287374 0 0 1 -6.2875,-6.2875 6.2873735,6.287374 0 0 1 6.2875,-6.2875 z m 325.2034,20.3523 a 6.2873735,6.287374 0 0 1 6.2874,6.2874 6.2873735,6.287374 0 0 1 -6.2874,6.2875 6.2873735,6.287374 0 0 1 -6.2875,-6.2875 6.2873735,6.287374 0 0 1 6.2875,-6.2874 z m -169.8677,102.481 h 38.5454 c 0.9291,0 1.6769,0.748 1.6769,1.6769 v 14.9216 h 17.6941 c 0.929,0 1.6774,0.7479 1.6774,1.6769 v 56.2503 c 0,0.9291 -0.7484,1.6769 -1.6774,1.6769 h -16.583 v 45.5316 c 0,0.929 -0.7479,1.6769 -1.6769,1.6769 h -13.0137 v 35.3384 c 0,0.9291 -0.7479,1.6774 -1.6769,1.6774 h -34.4682 c -0.929,0 -1.6769,-0.7483 -1.6769,-1.6774 v -35.7575 h -26.8774 c -0.929,0 -1.6769,-0.7479 -1.6769,-1.6769 v -88.64 c 0,-0.9291 0.7479,-1.6769 1.6769,-1.6769 h 19.4045 v -12.7228 c 0,-0.929 0.7479,-1.6769 1.6769,-1.6769 h 15.2983 v -14.9216 c 0,-0.9289 0.7479,-1.6769 1.6769,-1.6769 z m 159.8001,99.5966 a 6.2873735,6.287374 0 0 1 6.2874,6.2874 6.2873735,6.287374 0 0 1 -6.2874,6.2875 6.2873735,6.287374 0 0 1 -6.2875,-6.2875 6.2873735,6.287374 0 0 1 6.2875,-6.2874 z m -315.1358,102.2826 a 6.2873735,6.287374 0 0 1 6.2874,6.2875 6.2873735,6.287374 0 0 1 -6.2874,6.2869 6.2873735,6.287374 0 0 1 -6.2875,-6.2869 6.2873735,6.287374 0 0 1 6.2875,-6.2875 z" />
    <path
       id="path2668"
       style="display:inline;fill:#d35f5f;fill-opacity:1;fill-rule:nonzero;stroke:#000000;stroke-width:0.79756;stroke-dasharray:none;stroke-opacity:1"
       inkscape:label="4 Front Leg"
       d="m 1222.4163,878.5133 -47.0389,17.91984 -52.1607,53.23706 -8.3183,56.5211 -17.9199,109.7576 -26.8795,181.4365 v 55.9987 l 27.1865,45.547 77.8386,19.4118 40.319,12.2912 38.0794,8.9597 22.6528,14.5882 44.1849,67.199 23.0136,89.5982 29.1192,80.6385 33.5995,73.9179 6.72,47.0396 v 45.4592 l 6.7773,115.8343 c 15.6212,0.2207 27.6744,0.1099 42.2135,0 l 2.5285,-96.3352 v -58.2389 l -13.44,-55.9986 -15.6797,-40.319 -11.1998,-31.3593 -6.72,-53.759 -8.9597,-50.0693 2.2402,-66.4084 -11.1998,-49.2791 -8.9597,-55.9987 v -58.2393 l 7.3965,-45.4303 26.2025,-24.0079 11.1998,-26.8794 29.1197,-88.7368 13.3697,-97.0648 v -94.76737 l -30.117,-54.74653 -3.514,-1.76371 -123.7103,-45.95379 h -55.3847 z m -80.6105,96.12902 a 6.2873735,6.287374 0 0 1 6.2874,6.28747 6.2873735,6.287374 0 0 1 -6.2874,6.28695 6.2873735,6.287374 0 0 1 -6.2875,-6.28695 6.2873735,6.287374 0 0 1 6.2875,-6.28747 z m 308.9744,32.31738 a 6.2873735,6.287374 0 0 1 6.2875,6.2875 6.2873735,6.287374 0 0 1 -6.2875,6.2875 6.2873735,6.287374 0 0 1 -6.287,-6.2875 6.2873735,6.287374 0 0 1 6.287,-6.2875 z m -191.3708,71.1052 h 35.3204 c 0.929,0 1.6769,0.7479 1.6769,1.6769 v 28.7332 h 17.9322 c 0.929,0 1.6769,0.7484 1.6769,1.6774 v 48.5552 h 4.792 c 0.929,0 1.6769,0.7478 1.6769,1.6769 v 34.3178 c 0,0.929 -0.7479,1.6769 -1.6769,1.6769 h -11.5435 v 18.8743 c 0,0.929 -0.7479,1.6769 -1.6769,1.6769 h -11.5502 v 30.3015 c 0,0.929 -0.7479,1.6769 -1.6769,1.6769 h -37.7249 c -0.929,0 -1.6774,-0.7479 -1.6774,-1.6769 v -30.3015 h -16.1106 c -0.929,0 -1.6769,-0.7479 -1.6769,-1.6769 v -18.8743 h -6.0829 c -0.929,0 -1.6769,-0.7479 -1.6769,-1.6769 v -34.3178 c 0,-0.9291 0.7479,-1.6769 1.6769,-1.6769 h 6.0829 v -37.9347 c 0,-0.929 0.7479,-1.6769 1.6769,-1.6769 h 11.0748 v -8.9436 c 0,-0.929 0.7478,-1.6774 1.6769,-1.6774 h 6.1334 v -28.7332 c 0,-0.929 0.7479,-1.6769 1.6769,-1.6769 z m 143.2512,186.5003 a 6.2873735,6.287374 0 0 1 6.287,6.2875 6.2873735,6.287374 0 0 1 -6.287,6.2874 6.2873735,6.287374 0 0 1 -6.2874,-6.2874 6.2873735,6.287374 0 0 1 6.2874,-6.2875 z m -308.5021,74.7143 a 6.2873735,6.287374 0 0 1 6.2875,6.2875 6.2873735,6.287374 0 0 1 -6.2875,6.2874 6.2873735,6.287374 0 0 1 -6.2874,-6.2874 6.2873735,6.287374 0 0 1 6.2874,-6.2875 z" />
    <path
       id="path2636-2"
       style="display:inline;fill:#d35f5f;fill-opacity:1;fill-rule:nonzero;stroke:#000000;stroke-width:0.799953;stroke-dasharray:none;stroke-opacity:1"
       inkscape:label="4 Head"
       d="m 890.79989,907.62522 -26.96011,11.23342 -21.3434,12.8633 -16.85014,25.32972 -6.74015,23.59029 -57.25594,-5.11907 -48.76188,30.74232 -55.97643,39.6477 -71.13209,60.6387 -60.63816,62.9718 -9.32863,29.1507 9.32863,23.3237 26.82162,32.6527 27.98589,22.1548 h 40.81249 l 29.15481,-23.3232 30.31908,-24.4884 h 59.47027 l 46.55737,-4.0897 18.03972,-9.4846 39.67665,-15.6032 26.30951,-29.5171 17.68884,-43.6428 5.41931,-29.2137 -2.55799,-30.7056 -13.52889,-31.9015 6.74946,-14.8766 11.23343,-19.0965 19.09702,-23.59027 V 966.03871 942.44842 L 903.15624,923.35191 Z M 874.805,1057.7153 a 6.2873735,6.287374 0 0 1 6.28747,6.2869 6.2873735,6.287374 0 0 1 -6.28747,6.2875 6.2873735,6.287374 0 0 1 -6.28747,-6.2875 6.2873735,6.287374 0 0 1 6.28747,-6.2869 z m -81.25395,70.8184 h 8.99273 c 0.92902,0 1.6769,0.7479 1.6769,1.6769 v 12.2742 c 0,0.929 -0.74788,1.6769 -1.6769,1.6769 h -5.69009 v 1.9446 c 0,0.929 -0.74788,1.6769 -1.6769,1.6769 h -3.52692 v 3.0773 c 0,0.929 -0.74788,1.6774 -1.6769,1.6774 h -7.60832 v 13.3036 c 0,0.929 -0.74788,1.6769 -1.6769,1.6769 h -6.21048 c 0.34296,0.3066 0.55966,0.7517 0.55966,1.2501 v 3.5527 c 0,0.929 -0.7484,1.6769 -1.67742,1.6769 h -26.60509 c -0.92902,0 -1.6769,-0.7479 -1.6769,-1.6769 v -3.5527 c 0,-0.9291 0.74788,-1.6769 1.6769,-1.6769 h 13.99811 c -0.34296,-0.3067 -0.55914,-0.7517 -0.55914,-1.2501 v -15.6213 c 0,-0.929 0.74788,-1.6769 1.6769,-1.6769 h 13.23899 v -11.0293 c 0,-0.929 0.74788,-1.6769 1.6769,-1.6769 h 5.36815 v -2.8954 c 0,-0.929 0.74788,-1.6769 1.6769,-1.6769 h 8.04292 v -1.0542 c 0,-0.929 0.74788,-1.6769 1.6769,-1.6769 z m -180.68923,46.4339 h 7.03368 c 0.929,0 1.6769,0.7478 1.6769,1.6769 v 17.6438 c 0,0.9291 -0.7479,1.6769 -1.6769,1.6769 h -0.38809 v 12.7848 c 0,0.929 -0.74791,1.6769 -1.6769,1.6769 h -7.69979 v 7.5716 c 0,0.929 -0.74788,1.6769 -1.6769,1.6769 h -11.82977 c -0.92902,0 -1.6769,-0.7479 -1.6769,-1.6769 v -11.8297 c 0,-0.9291 0.74788,-1.6769 1.6769,-1.6769 h 6.56549 v -19.0061 c 0,-0.929 0.74788,-1.6769 1.6769,-1.6769 h 6.31848 v -7.1644 c 0,-0.9291 0.74788,-1.6769 1.6769,-1.6769 z m 217.82649,9.248 a 6.2873735,6.287374 0 0 1 6.28748,6.2874 6.2873735,6.287374 0 0 1 -6.28748,6.2875 6.2873735,6.287374 0 0 1 -6.28747,-6.2875 6.2873735,6.287374 0 0 1 6.28747,-6.2874 z" />
  </g>
  <g
     inkscape:groupmode="layer"
     id="layer3"
     inkscape:label="Layer 3"
     style="display:inline">
    <path
       id="path2682"
       style="display:inline;fill:#de8787;fill-opacity:1;fill-rule:nonzero;stroke:#000000;stroke-width:0.79756;stroke-dasharray:none;stroke-opacity:1"
       inkscape:label="3 Front Leg"
       d="m 1260.7323,905.46411 -44.7486,27.27637 -39.8105,58.70133 -68.0615,236.10809 23.1154,76.3111 51.3674,59.3529 109.1561,33.9158 51.3674,37.8297 21.8312,-36.5249 -5.1366,-101.7483 25.0739,-31.3071 23.7252,-73.0498 v -180.0164 l -38.5258,-48.26528 -61.8257,-55.5253 z m -1.3229,172.60079 h 35.3204 c 0.929,0 1.6769,0.7479 1.6769,1.6769 v 28.7332 h 17.9322 c 0.929,0 1.6769,0.7484 1.6769,1.6774 v 48.5552 h 4.792 c 0.929,0 1.6769,0.7478 1.6769,1.6769 v 34.3178 c 0,0.929 -0.7479,1.6769 -1.6769,1.6769 h -11.5435 v 18.8743 c 0,0.929 -0.7479,1.6769 -1.6769,1.6769 h -11.5502 v 30.3015 c 0,0.929 -0.7479,1.6769 -1.6769,1.6769 h -37.7249 c -0.929,0 -1.6774,-0.7479 -1.6774,-1.6769 v -30.3015 h -16.1106 c -0.929,0 -1.6769,-0.7479 -1.6769,-1.6769 v -18.8743 h -6.0829 c -0.929,0 -1.6769,-0.7479 -1.6769,-1.6769 v -34.3178 c 0,-0.9291 0.7479,-1.6769 1.6769,-1.6769 h 6.0829 v -37.9347 c 0,-0.929 0.7479,-1.6769 1.6769,-1.6769 h 11.0748 v -8.9436 c 0,-0.929 0.7478,-1.6774 1.6769,-1.6774 h 6.1334 v -28.7332 c 0,-0.929 0.7479,-1.6769 1.6769,-1.6769 z" />
    <path
       d="m 2363.355,1523.6063 -39.0315,32.7517 -3.5042,48.6682 12.6193,33.7539 22.0027,-4.6053 15.9574,-50.3415 1.7377,-48.5725 z"
       style="display:inline;fill:#de8787;fill-opacity:1;fill-rule:nonzero;stroke:#000000;stroke-width:0.79756;stroke-dasharray:none;stroke-opacity:1"
       id="path2714"
       inkscape:label="3 Hind Leg Small" />
    <path
       id="path4908"
       style="display:inline;fill:#de8787;fill-opacity:1;fill-rule:nonzero;stroke:#000000;stroke-width:0.79756;stroke-dasharray:none;stroke-opacity:1"
       inkscape:label="3 Hind Leg"
       d="m 2006.7297,1032.954 -48.7428,38.2039 -25.03,79.0427 v 155.4505 l 25.03,61.9171 96.1689,56.4777 92.9173,31.7862 123.1325,21.6596 61.9166,34.9876 22.3961,-18.4434 -69.8216,-55.3294 -73.7733,-40.8389 -23.7127,-52.6954 22.3955,-43.4734 31.6167,-98.8032 v -79.1135 l -19.76,-39.4509 -74.3898,-32.2755 z m 66.2709,139.9418 h 38.5454 c 0.9291,0 1.6769,0.748 1.6769,1.6769 v 14.9216 h 17.6941 c 0.929,0 1.6774,0.7479 1.6774,1.6769 v 56.2503 c 0,0.9291 -0.7484,1.6769 -1.6774,1.6769 h -16.583 v 45.5316 c 0,0.929 -0.7479,1.6769 -1.6769,1.6769 h -13.0137 v 35.3384 c 0,0.9291 -0.7479,1.6774 -1.6769,1.6774 h -34.4682 c -0.929,0 -1.6769,-0.7483 -1.6769,-1.6774 v -35.7575 h -26.8774 c -0.929,0 -1.6769,-0.7479 -1.6769,-1.6769 v -88.64 c 0,-0.9291 0.7479,-1.6769 1.6769,-1.6769 h 19.4045 v -12.7228 c 0,-0.929 0.7479,-1.6769 1.6769,-1.6769 h 15.2983 v -14.9216 c 0,-0.9289 0.7479,-1.6769 1.6769,-1.6769 z" />
    <path
       id="path2694-7"
       style="display:inline;fill:#de8787;fill-opacity:1;fill-rule:nonzero;stroke:#000000;stroke-width:0.79756;stroke-dasharray:none;stroke-opacity:1"
       inkscape:label="3 Face 1"
       d="m 799.27938,998.81707 -21.20646,5.05553 -58.63105,26.54 -128.48931,101.1044 -51.14623,58.1354 4.98987,30.331 38.67206,30.3315 h 24.94887 l 37.42407,-32.859 8.73228,-82.1474 77.34257,-83.4115 60.32035,-5.9944 20.94135,-39.3558 z M 612.86182,1174.9676 h 7.03368 c 0.11612,0 0.22963,0.012 0.33899,0.034 0.10936,0.022 0.21433,0.055 0.31471,0.097 0.10038,0.042 0.19607,0.094 0.28526,0.1545 0.0892,0.06 0.17227,0.1284 0.24804,0.2042 0.0758,0.076 0.14397,0.1588 0.20413,0.248 0.0602,0.089 0.11219,0.1849 0.15451,0.2853 0.0423,0.1003 0.0749,0.2053 0.0971,0.3147 0.0223,0.1093 0.0341,0.2228 0.0341,0.339 v 17.6438 c 0,0.1162 -0.0118,0.2297 -0.0341,0.339 -0.0223,0.1094 -0.0548,0.2144 -0.0971,0.3147 -0.0423,0.1004 -0.0944,0.1961 -0.15451,0.2853 -0.0602,0.089 -0.12835,0.1723 -0.20413,0.248 -0.0758,0.076 -0.15886,0.144 -0.24804,0.2042 -0.0892,0.06 -0.18488,0.1122 -0.28526,0.1545 -0.10038,0.042 -0.20535,0.075 -0.31471,0.097 -0.10936,0.022 -0.22287,0.034 -0.33899,0.034 h -0.38809 v 12.7848 c 0,0.1161 -0.0119,0.2296 -0.0341,0.339 -0.0223,0.1093 -0.0548,0.2143 -0.0971,0.3147 -0.0423,0.1004 -0.0944,0.1961 -0.15452,0.2853 -0.0602,0.089 -0.12834,0.1722 -0.20412,0.248 -0.0758,0.076 -0.15886,0.144 -0.24804,0.2041 -0.0892,0.06 -0.18488,0.1122 -0.28526,0.1545 -0.10038,0.042 -0.20535,0.075 -0.31471,0.097 -0.10936,0.022 -0.22287,0.034 -0.33899,0.034 h -7.69979 v 7.5716 c 0,0.1161 -0.0118,0.2297 -0.0341,0.339 -0.0223,0.1094 -0.0548,0.2144 -0.0972,0.3147 -0.0423,0.1004 -0.0944,0.1961 -0.15451,0.2853 -0.0602,0.089 -0.12835,0.1723 -0.20413,0.248 -0.0758,0.076 -0.15886,0.144 -0.24804,0.2042 -0.0892,0.06 -0.18488,0.1121 -0.28526,0.1545 -0.10037,0.042 -0.20535,0.075 -0.31471,0.097 -0.10936,0.022 -0.22287,0.034 -0.33899,0.034 h -11.82977 c -0.11613,0 -0.22964,-0.012 -0.339,-0.034 -0.10936,-0.022 -0.21433,-0.055 -0.31471,-0.097 -0.10038,-0.042 -0.19607,-0.094 -0.28525,-0.1545 -0.0892,-0.06 -0.17228,-0.1284 -0.24805,-0.2042 -0.0758,-0.076 -0.14397,-0.1588 -0.20412,-0.248 -0.0602,-0.089 -0.1122,-0.1849 -0.15451,-0.2853 -0.0423,-0.1003 -0.0749,-0.2053 -0.0972,-0.3147 -0.0223,-0.1093 -0.0341,-0.2229 -0.0341,-0.339 v -11.8297 c 0,-0.1162 0.0118,-0.2297 0.0341,-0.339 0.0223,-0.1094 0.0548,-0.2144 0.0972,-0.3148 0.0423,-0.1003 0.0944,-0.196 0.15451,-0.2852 0.0601,-0.089 0.12835,-0.1723 0.20412,-0.2481 0.0758,-0.076 0.15886,-0.1439 0.24805,-0.2041 0.0892,-0.06 0.18487,-0.1122 0.28525,-0.1545 0.10038,-0.042 0.20535,-0.075 0.31471,-0.097 0.10936,-0.022 0.22287,-0.034 0.339,-0.034 h 6.56549 v -19.0061 c 0,-0.1161 0.0118,-0.2297 0.0341,-0.339 0.0223,-0.1094 0.0548,-0.2144 0.0971,-0.3147 0.0423,-0.1004 0.0944,-0.1961 0.15451,-0.2853 0.0601,-0.089 0.12835,-0.1723 0.20412,-0.248 0.0758,-0.076 0.15886,-0.144 0.24805,-0.2042 0.0892,-0.06 0.18487,-0.1121 0.28525,-0.1545 0.10038,-0.042 0.20535,-0.075 0.31471,-0.097 0.10936,-0.022 0.22287,-0.034 0.339,-0.034 h 6.31848 v -7.1644 c 0,-0.1162 0.0118,-0.2297 0.0341,-0.339 0.0223,-0.1094 0.0548,-0.2144 0.0972,-0.3147 0.0423,-0.1004 0.0944,-0.1961 0.15452,-0.2853 0.0602,-0.089 0.12834,-0.1723 0.20412,-0.248 0.0758,-0.076 0.15886,-0.144 0.24805,-0.2042 0.0892,-0.06 0.18487,-0.1122 0.28525,-0.1545 0.10038,-0.042 0.20535,-0.075 0.31471,-0.097 0.10936,-0.022 0.22287,-0.034 0.339,-0.034 z m -31.91175,4.7211 -18.42368,28.0939 -7.79953,-15.5319 z" />
    <path
       id="path2686"
       style="display:inline;fill:#de8787;fill-opacity:1;fill-rule:nonzero;stroke:#000000;stroke-width:0.79756;stroke-dasharray:none;stroke-opacity:1"
       inkscape:label="3 Face 2"
       d="m 831.79522,1053.3057 -88.59407,62.4557 -37.62251,63.7609 12.13621,20.6313 44.90423,10.9223 35.19475,-16.9906 54.61321,-74.0307 v -47.3309 z m -38.24417,75.228 h 8.99273 c 0.11613,0 0.22964,0.012 0.339,0.034 0.10936,0.022 0.21433,0.055 0.31471,0.097 0.10037,0.042 0.19607,0.094 0.28525,0.1545 0.0892,0.06 0.17227,0.1283 0.24805,0.2041 0.0758,0.076 0.14397,0.1589 0.20412,0.248 0.0602,0.089 0.1122,0.1849 0.15451,0.2853 0.0423,0.1004 0.0749,0.2053 0.0971,0.3147 0.0223,0.1094 0.0341,0.2229 0.0341,0.339 v 12.2742 c 0,0.1161 -0.0118,0.2296 -0.0341,0.339 -0.0223,0.1093 -0.0548,0.2143 -0.0971,0.3147 -0.0423,0.1004 -0.0944,0.1961 -0.15451,0.2852 -0.0601,0.089 -0.12835,0.1723 -0.20412,0.2481 -0.0758,0.076 -0.15887,0.144 -0.24805,0.2041 -0.0892,0.06 -0.18488,0.1122 -0.28525,0.1545 -0.10038,0.042 -0.20535,0.075 -0.31471,0.097 -0.10936,0.022 -0.22287,0.034 -0.339,0.034 h -5.69009 v 1.9446 c 0,0.1161 -0.0118,0.2296 -0.0341,0.339 -0.0223,0.1093 -0.0548,0.2148 -0.0971,0.3152 -0.0423,0.1004 -0.0944,0.1955 -0.15451,0.2847 -0.0602,0.089 -0.12835,0.1723 -0.20413,0.2481 -0.0758,0.076 -0.15886,0.1439 -0.24804,0.2041 -0.0892,0.06 -0.18488,0.1122 -0.28526,0.1545 -0.10038,0.042 -0.20535,0.075 -0.31471,0.097 -0.10936,0.022 -0.22287,0.034 -0.33899,0.034 h -3.52692 v 3.0773 c 0,0.1161 -0.0118,0.2296 -0.0341,0.339 -0.0223,0.1094 -0.0548,0.2148 -0.0972,0.3152 -0.0423,0.1004 -0.0944,0.1956 -0.15451,0.2848 -0.0602,0.089 -0.12835,0.1722 -0.20412,0.248 -0.0758,0.076 -0.15887,0.1445 -0.24805,0.2046 -0.0892,0.06 -0.18488,0.1122 -0.28525,0.1546 -0.10038,0.042 -0.20535,0.075 -0.31471,0.097 -0.10936,0.022 -0.22287,0.034 -0.339,0.034 h -7.60832 v 13.3036 c 0,0.1161 -0.0118,0.2296 -0.0341,0.339 -0.0223,0.1094 -0.0548,0.2143 -0.0972,0.3147 -0.0423,0.1004 -0.0944,0.1961 -0.15451,0.2853 -0.0602,0.089 -0.12835,0.1722 -0.20412,0.248 -0.0758,0.076 -0.15887,0.144 -0.24805,0.2041 -0.0892,0.06 -0.18488,0.1122 -0.28525,0.1545 -0.10038,0.042 -0.20535,0.075 -0.31471,0.097 -0.10936,0.022 -0.22287,0.034 -0.339,0.034 h -6.21048 c 0.0857,0.077 0.16349,0.1621 0.23203,0.2548 0.0685,0.093 0.1277,0.1922 0.17622,0.2981 0.0485,0.106 0.0865,0.2183 0.11214,0.3349 0.0257,0.1166 0.0393,0.2377 0.0393,0.3623 v 3.5527 c 0,0.1161 -0.0118,0.2296 -0.0341,0.339 -0.0223,0.1094 -0.0548,0.2143 -0.0972,0.3147 -0.0423,0.1004 -0.0943,0.1961 -0.15451,0.2853 -0.0602,0.089 -0.12883,0.1722 -0.20464,0.248 -0.0758,0.076 -0.15883,0.144 -0.24805,0.2041 -0.0892,0.06 -0.18433,0.1122 -0.28473,0.1545 -0.10041,0.042 -0.20586,0.075 -0.31523,0.097 -0.10937,0.022 -0.22287,0.034 -0.339,0.034 h -26.60509 c -0.11613,0 -0.22964,-0.012 -0.339,-0.034 -0.10936,-0.022 -0.21433,-0.055 -0.31471,-0.097 -0.10038,-0.042 -0.19607,-0.094 -0.28525,-0.1545 -0.0892,-0.06 -0.17227,-0.1283 -0.24805,-0.2041 -0.0758,-0.076 -0.14397,-0.1588 -0.20412,-0.248 -0.0602,-0.089 -0.1122,-0.1849 -0.15451,-0.2853 -0.0423,-0.1004 -0.0749,-0.2053 -0.0972,-0.3147 -0.0223,-0.1094 -0.0341,-0.2229 -0.0341,-0.339 v -3.5527 c 0,-0.1162 0.0118,-0.2297 0.0341,-0.339 0.0223,-0.1094 0.0548,-0.2144 0.0972,-0.3148 0.0423,-0.1003 0.0944,-0.196 0.15451,-0.2852 0.0602,-0.089 0.12835,-0.1723 0.20412,-0.2481 0.0758,-0.076 0.15886,-0.1439 0.24805,-0.2041 0.0892,-0.06 0.18487,-0.1122 0.28525,-0.1545 0.10038,-0.042 0.20535,-0.075 0.31471,-0.097 0.10936,-0.022 0.22287,-0.034 0.339,-0.034 h 13.99811 c -0.0857,-0.077 -0.16353,-0.1622 -0.23203,-0.2548 -0.0685,-0.093 -0.12776,-0.1922 -0.17621,-0.2982 -0.0485,-0.1059 -0.086,-0.2183 -0.11162,-0.3348 -0.0256,-0.1166 -0.0393,-0.2377 -0.0393,-0.3623 v -15.6213 c 0,-0.1161 0.0118,-0.2296 0.0341,-0.339 0.0223,-0.1093 0.0548,-0.2148 0.0972,-0.3152 0.0423,-0.1004 0.0944,-0.1955 0.15451,-0.2847 0.0602,-0.089 0.12835,-0.1723 0.20412,-0.2481 0.0758,-0.076 0.15887,-0.1439 0.24805,-0.2041 0.0892,-0.06 0.18488,-0.1122 0.28526,-0.1545 0.10037,-0.042 0.20534,-0.075 0.3147,-0.097 0.10936,-0.022 0.22287,-0.034 0.339,-0.034 h 13.23899 v -11.0293 c 0,-0.1161 0.0118,-0.2296 0.0341,-0.339 0.0223,-0.1093 0.0548,-0.2148 0.0972,-0.3152 0.0423,-0.1004 0.0944,-0.1955 0.15451,-0.2847 0.0602,-0.089 0.12835,-0.1723 0.20412,-0.2481 0.0758,-0.076 0.15886,-0.1439 0.24805,-0.2041 0.0892,-0.06 0.18487,-0.1122 0.28525,-0.1545 0.10038,-0.042 0.20535,-0.075 0.31471,-0.097 0.10936,-0.022 0.22287,-0.034 0.339,-0.034 h 5.36815 v -2.8954 c 0,-0.1161 0.0118,-0.2296 0.0341,-0.339 0.0223,-0.1094 0.0548,-0.2143 0.0971,-0.3147 0.0423,-0.1004 0.0944,-0.1961 0.15452,-0.2853 0.0602,-0.089 0.12834,-0.1722 0.20412,-0.248 0.0758,-0.076 0.15886,-0.144 0.24804,-0.2041 0.0892,-0.06 0.18488,-0.1122 0.28526,-0.1545 0.10038,-0.042 0.20535,-0.075 0.31471,-0.097 0.10936,-0.022 0.22287,-0.034 0.339,-0.034 h 8.04292 v -1.0542 c 0,-0.1161 0.0118,-0.2296 0.0341,-0.339 0.0223,-0.1094 0.0548,-0.2143 0.0972,-0.3147 0.0423,-0.1004 0.0944,-0.1961 0.15452,-0.2853 0.0601,-0.089 0.12834,-0.1722 0.20412,-0.248 0.0758,-0.076 0.15886,-0.144 0.24804,-0.2041 0.0892,-0.06 0.18488,-0.1122 0.28526,-0.1545 0.10038,-0.042 0.20535,-0.075 0.31471,-0.097 0.10936,-0.022 0.22287,-0.034 0.339,-0.034 z" />
    <path
       d="m 857.99949,1007.7275 -11.81834,-19.01693 9.59741,-27.78819 34.04359,-20.96565 8.8196,30.22721 z m 34.67756,-79.02422 -14.4914,5.22876 -37.53058,23.81803 -9.49944,36.66607 13.2464,6.52716 13.53937,18.0771 41.66875,-35.02175 9.8367,-20.11025 z"
       style="display:inline;fill:#de8787;fill-opacity:1;fill-rule:nonzero;stroke:#000000;stroke-width:0.79756;stroke-dasharray:none;stroke-opacity:1"
       id="path2690"
       inkscape:label="3 Face 3" />
  </g>
  <g
     inkscape:groupmode="layer"
     id="layer2"
     inkscape:label="Layer 2"
     style="display:inline">
    <path
       id="path2706"
       style="display:inline;fill:#e9afaf;fill-opacity:1;fill-rule:nonzero;stroke:#000000;stroke-width:0.79756;stroke-dasharray:none;stroke-opacity:1"
       inkscape:label="2 Front Leg"
       d="m 1259.9045,971.09008 -39.688,46.39922 -60.6542,164.2995 -6.7396,76.8248 39.688,44.8784 64.3986,43.3565 44.9285,14.4519 22.4653,-63.1336 47.1755,-50.9628 6.7396,-188.6402 -23.9624,-41.0745 -41.9338,-42.59583 z m -0.4951,106.97482 h 35.3204 c 0.929,0 1.6769,0.7479 1.6769,1.6769 v 28.7332 h 17.9322 c 0.929,0 1.6769,0.7484 1.6769,1.6774 v 48.5552 h 4.792 c 0.929,0 1.6769,0.7478 1.6769,1.6769 v 34.3178 c 0,0.929 -0.7479,1.6769 -1.6769,1.6769 h -11.5435 v 18.8743 c 0,0.929 -0.7479,1.6769 -1.6769,1.6769 h -11.5502 v 30.3015 c 0,0.929 -0.7479,1.6769 -1.6769,1.6769 h -37.7249 c -0.929,0 -1.6774,-0.7479 -1.6774,-1.6769 v -30.3015 h -16.1106 c -0.929,0 -1.6769,-0.7479 -1.6769,-1.6769 v -18.8743 h -6.0829 c -0.929,0 -1.6769,-0.7479 -1.6769,-1.6769 v -34.3178 c 0,-0.9291 0.7479,-1.6769 1.6769,-1.6769 h 6.0829 v -37.9347 c 0,-0.929 0.7479,-1.6769 1.6769,-1.6769 h 11.0748 v -8.9436 c 0,-0.929 0.7478,-1.6774 1.6769,-1.6774 h 6.1334 v -28.7332 c 0,-0.929 0.7479,-1.6769 1.6769,-1.6769 z" />
    <path
       id="path4912"
       style="display:inline;fill:#e9afaf;fill-opacity:1;fill-rule:nonzero;stroke:#000000;stroke-width:0.79756;stroke-dasharray:none;stroke-opacity:1"
       inkscape:label="2 Hind Leg"
       d="m 2049.5204,1070.7719 -68.632,27.6644 -14.5087,108.9112 24.6492,126.7762 70.9538,50.5479 49.7163,13.6089 50.8403,36.9099 38.069,8.305 -45.668,-81.2685 8.2765,-67.6708 42.0662,-80.4452 v -66.5913 l -40.4673,-46.4013 z m 23.4802,102.1239 h 38.5454 c 0.9291,0 1.6769,0.748 1.6769,1.6769 v 14.9216 h 17.6941 c 0.929,0 1.6774,0.7479 1.6774,1.6769 v 56.2503 c 0,0.9291 -0.7484,1.6769 -1.6774,1.6769 h -16.583 v 45.5316 c 0,0.929 -0.7479,1.6769 -1.6769,1.6769 h -13.0137 v 35.3384 c 0,0.9291 -0.7479,1.6774 -1.6769,1.6774 h -34.4682 c -0.929,0 -1.6769,-0.7483 -1.6769,-1.6774 v -35.7575 h -26.8774 c -0.929,0 -1.6769,-0.7479 -1.6769,-1.6769 v -88.64 c 0,-0.9291 0.7479,-1.6769 1.6769,-1.6769 h 19.4045 v -12.7228 c 0,-0.929 0.7479,-1.6769 1.6769,-1.6769 h 15.2983 v -14.9216 c 0,-0.9289 0.7479,-1.6769 1.6769,-1.6769 z" />
    <path
       d="m 583.19893,1213.6545 20.33621,-44.919 11.81865,-16.616 12.35904,-0.4123 0.88454,26.5151 5.05006,20.4772 -13.63137,27.7367 -18.68112,7.2591 -10.9049,0.3637 z"
       style="display:inline;fill:#e9afaf;fill-opacity:1;fill-rule:nonzero;stroke:#000000;stroke-width:0.79756;stroke-dasharray:none;stroke-opacity:1"
       id="path2710-2"
       inkscape:label="2 Face 1" />
    <path
       d="m 723.60152,1190.1041 h 50.95247 l 33.9682,-35.0297 12.0306,-33.9682 -19.81497,-10.6152 -44.58329,28.307 -32.55301,36.0913 z"
       style="display:inline;fill:#e9afaf;fill-opacity:1;fill-rule:nonzero;stroke:#000000;stroke-width:0.79756;stroke-dasharray:none;stroke-opacity:1"
       id="path2714-2"
       inkscape:label="2 Face 2" />
  </g>
  <g
     inkscape:label="Layer 1"
     inkscape:groupmode="layer"
     id="layer1"
     style="display:inline">
    <path
       d="m 1261.3437,1288.5385 65.8964,-56.2873 17.2229,-89.7563 -41.5595,-72.2611 -41.5598,-31.9473 -18.7203,44.1785 -32.948,104.9081 5.9901,51.7236 z"
       style="display:inline;fill:#f4d7d7;fill-opacity:1;fill-rule:nonzero;stroke:#000000;stroke-width:0.79756;stroke-dasharray:none;stroke-opacity:1"
       id="path2726"
       inkscape:label="1 Front Leg" />
    <path
       d="m 2110.7125,1342.4444 18.9163,-41.2737 38.9743,-50.8404 -12.3989,-66.3134 -65.0297,-34.8616 -71.761,44.4931 v 102.5297 l 44.8075,52.7322 56.0804,22.048 z"
       style="fill:#f4d7d7;fill-opacity:1;fill-rule:nonzero;stroke:#000000;stroke-width:0.79756;stroke-dasharray:none;stroke-opacity:1"
       id="path4916"
       inkscape:label="1 Hind Leg" />
  </g>
  <g
     inkscape:groupmode="layer"
     id="g23246"
     inkscape:label="Drill Base"
     style="display:none"
     sodipodi:insensitive="true">
    <ellipse
       style="fill:#ff00ff;fill-opacity:1;stroke:#000000;stroke-width:0.125252;stroke-linecap:round;stroke-linejoin:bevel;stroke-dasharray:none;stroke-dashoffset:0;stroke-opacity:1"
       id="ellipse23226"
       cx="1402.6604"
       cy="1270.8525"
       rx="6.2873735"
       ry="6.287374"
       inkscape:label="6" />
    <ellipse
       style="fill:#ff00ff;fill-opacity:1;stroke:#000000;stroke-width:0.125252;stroke-linecap:round;stroke-linejoin:bevel;stroke-dasharray:none;stroke-dashoffset:0;stroke-opacity:1"
       id="ellipse23228"
       cx="1450.7804"
       cy="1013.2471"
       rx="6.2873735"
       ry="6.287374"
       inkscape:label="5" />
    <ellipse
       style="fill:#ff00ff;fill-opacity:1;stroke:#000000;stroke-width:0.125252;stroke-linecap:round;stroke-linejoin:bevel;stroke-dasharray:none;stroke-dashoffset:0;stroke-opacity:1"
       id="ellipse23230"
       cx="830.68817"
       cy="1190.5029"
       rx="6.2873735"
       ry="6.287374"
       inkscape:label="4" />
    <ellipse
       style="fill:#ff00ff;fill-opacity:1;stroke:#000000;stroke-width:0.125252;stroke-linecap:round;stroke-linejoin:bevel;stroke-dasharray:none;stroke-dashoffset:0;stroke-opacity:1"
       id="ellipse23232"
       cx="874.80511"
       cy="1064.0024"
       rx="6.2873735"
       ry="6.287374"
       inkscape:label="3" />
    <ellipse
       style="fill:#ff00ff;fill-opacity:1;stroke:#000000;stroke-width:0.125252;stroke-linecap:round;stroke-linejoin:bevel;stroke-dasharray:none;stroke-dashoffset:0;stroke-opacity:1"
       id="ellipse23234"
       cx="1094.1587"
       cy="1345.567"
       rx="6.2873735"
       ry="6.287374"
       inkscape:label="2" />
    <ellipse
       style="fill:#ff00ff;fill-opacity:1;stroke:#000000;stroke-width:0.125252;stroke-linecap:round;stroke-linejoin:bevel;stroke-dasharray:none;stroke-dashoffset:0;stroke-opacity:1"
       id="ellipse23236"
       cx="1141.8057"
       cy="980.92957"
       rx="6.2873735"
       ry="6.287374"
       inkscape:label="1" />
    <ellipse
       style="fill:#ff00ff;fill-opacity:1;stroke:#000000;stroke-width:0.125252;stroke-linecap:round;stroke-linejoin:bevel;stroke-dasharray:none;stroke-dashoffset:0;stroke-opacity:1"
       id="ellipse23238"
       cx="2232.8005"
       cy="1278.7798"
       rx="6.2873735"
       ry="6.287374"
       inkscape:label="10" />
    <ellipse
       style="fill:#ff00ff;fill-opacity:1;stroke:#000000;stroke-width:0.125252;stroke-linecap:round;stroke-linejoin:bevel;stroke-dasharray:none;stroke-dashoffset:0;stroke-opacity:1"
       id="ellipse23240"
       cx="2242.8684"
       cy="1076.7024"
       rx="6.2873735"
       ry="6.287374"
       inkscape:label="9" />
    <ellipse
       style="fill:#ff00ff;fill-opacity:1;stroke:#000000;stroke-width:0.125252;stroke-linecap:round;stroke-linejoin:bevel;stroke-dasharray:none;stroke-dashoffset:0;stroke-opacity:1"
       id="ellipse23242"
       cx="1917.6648"
       cy="1381.0623"
       rx="6.2873735"
       ry="6.287374"
       inkscape:label="8" />
    <ellipse
       style="fill:#ff00ff;fill-opacity:1;stroke:#000000;stroke-width:0.125252;stroke-linecap:round;stroke-linejoin:bevel;stroke-dasharray:none;stroke-dashoffset:0;stroke-opacity:1"
       id="ellipse23244"
       cx="1917.6648"
       cy="1056.35"
       rx="6.2873735"
       ry="6.287374"
       inkscape:label="7" />
  </g>
  <g
     inkscape:groupmode="layer"
     id="layer10"
     inkscape:label="Cutouts Base"
     sodipodi:insensitive="true"
     style="display:none">
    <path
       id="rect539"
       style="fill:#ff00ff;stroke:#000000;stroke-width:0.253;stroke-linecap:round;stroke-linejoin:bevel"
       d="m 1259.4094,1078.0649 c -0.929,0 -1.6769,0.7479 -1.6769,1.6769 v 28.7332 h -6.1334 c -0.9291,0 -1.6769,0.7484 -1.6769,1.6774 v 8.9436 h -11.0748 c -0.929,0 -1.6769,0.7479 -1.6769,1.6769 v 37.9347 h -6.0829 c -0.929,0 -1.6769,0.7478 -1.6769,1.6769 v 34.3178 c 0,0.929 0.7479,1.6769 1.6769,1.6769 h 6.0829 v 18.8743 c 0,0.929 0.7479,1.6769 1.6769,1.6769 h 16.1106 v 30.3015 c 0,0.929 0.7484,1.6769 1.6774,1.6769 h 37.7249 c 0.929,0 1.6769,-0.7479 1.6769,-1.6769 v -30.3015 h 11.5502 c 0.929,0 1.6769,-0.7479 1.6769,-1.6769 v -18.8743 h 11.5435 c 0.929,0 1.6769,-0.7479 1.6769,-1.6769 v -34.3178 c 0,-0.9291 -0.7479,-1.6769 -1.6769,-1.6769 h -4.792 v -48.5552 c 0,-0.929 -0.7479,-1.6774 -1.6769,-1.6774 h -17.9322 v -28.7332 c 0,-0.929 -0.7479,-1.6769 -1.6769,-1.6769 z"
       inkscape:label="Front Leg" />
    <path
       id="rect547"
       style="fill:#ff00ff;stroke:#000000;stroke-width:0.253;stroke-linecap:round;stroke-linejoin:bevel"
       d="m 2073.0006,1172.8958 c -0.929,0 -1.6769,0.7479 -1.6769,1.6769 v 14.9216 h -15.2983 c -0.929,0 -1.6769,0.7479 -1.6769,1.6769 v 12.7228 h -19.4045 c -0.929,0 -1.6769,0.7478 -1.6769,1.6769 v 88.64 c 0,0.929 0.7479,1.6769 1.6769,1.6769 h 26.8774 v 35.7575 c 0,0.9291 0.7479,1.6774 1.6769,1.6774 h 34.4682 c 0.929,0 1.6769,-0.7483 1.6769,-1.6774 v -35.3384 h 13.0137 c 0.929,0 1.6769,-0.7479 1.6769,-1.6769 v -45.5316 h 16.583 c 0.929,0 1.6774,-0.7478 1.6774,-1.6769 v -56.2503 c 0,-0.929 -0.7484,-1.6769 -1.6774,-1.6769 h -17.6941 v -14.9216 c 0,-0.929 -0.7478,-1.6769 -1.6769,-1.6769 z"
       inkscape:label="Hind Leg" />
    <path
       id="rect558"
       style="fill:#ff00ff;stroke:#000000;stroke-width:0.253;stroke-linecap:round;stroke-linejoin:bevel"
       d="m 612.86182,1174.9676 c -0.92902,0 -1.6769,0.7478 -1.6769,1.6769 v 7.1644 h -6.31848 c -0.92902,0 -1.6769,0.7479 -1.6769,1.6769 v 19.0061 h -6.56549 c -0.92902,0 -1.6769,0.7478 -1.6769,1.6769 v 11.8297 c 0,0.929 0.74788,1.6769 1.6769,1.6769 h 11.82977 c 0.92902,0 1.6769,-0.7479 1.6769,-1.6769 v -7.5716 h 7.69979 c 0.92901,0 1.6769,-0.7479 1.6769,-1.6769 v -12.7848 h 0.38809 c 0.92902,0 1.6769,-0.7478 1.6769,-1.6769 v -17.6438 c 0,-0.9291 -0.74788,-1.6769 -1.6769,-1.6769 z"
       inkscape:label="Face 1" />
    <path
       id="rect565"
       style="fill:#ff00ff;stroke:#000000;stroke-width:0.253;stroke-linecap:round;stroke-linejoin:bevel"
       d="m 793.55105,1128.5337 c -0.92902,0 -1.6769,0.7479 -1.6769,1.6769 v 1.0542 h -8.04292 c -0.92902,0 -1.6769,0.7479 -1.6769,1.6769 v 2.8954 h -5.36815 c -0.92902,0 -1.6769,0.7479 -1.6769,1.6769 v 11.0293 h -13.23899 c -0.92902,0 -1.6769,0.7479 -1.6769,1.6769 v 15.6213 c 0,0.4984 0.21618,0.9434 0.55914,1.2501 h -13.99811 c -0.92902,0 -1.6769,0.7478 -1.6769,1.6769 v 3.5527 c 0,0.929 0.74788,1.6769 1.6769,1.6769 h 26.60509 c 0.92902,0 1.67742,-0.7479 1.67742,-1.6769 v -3.5527 c 0,-0.4984 -0.2167,-0.9435 -0.55966,-1.2501 h 6.21048 c 0.92902,0 1.6769,-0.7479 1.6769,-1.6769 v -13.3036 h 7.60832 c 0.92902,0 1.6769,-0.7484 1.6769,-1.6774 v -3.0773 h 3.52692 c 0.92902,0 1.6769,-0.7479 1.6769,-1.6769 v -1.9446 h 5.69009 c 0.92902,0 1.6769,-0.7479 1.6769,-1.6769 v -12.2742 c 0,-0.929 -0.74788,-1.6769 -1.6769,-1.6769 z"
       inkscape:label="Face 2" />
  </g>
</svg>
